<?xml version="1.0" standalone="no"?>
<!DOCTYPE svg PUBLIC "-//W3C//DTD SVG 20010904//EN"
 "http://www.w3.org/TR/2001/REC-SVG-20010904/DTD/svg10.dtd">
<svg version="1.0" xmlns="http://www.w3.org/2000/svg"
 width="1280.000000pt" height="1280.000000pt" viewBox="0 0 1280.000000 1280.000000"
 preserveAspectRatio="xMidYMid meet">
<metadata>
Created by potrace 1.15, written by Peter Selinger 2001-2017
</metadata>
<style>
path {
    fill: darkgoldenrod;
    stroke: none;
}
</style>
<g transform="translate(0.000000,1280.000000) scale(0.100000,-0.100000)">
<path d="M6335 12757 c-45 -48 -206 -318 -237 -399 -33 -87 -33 -159 -2 -273
35 -125 43 -225 19 -225 -26 0 -60 45 -79 106 -24 76 -55 122 -113 166 -173
130 -379 142 -488 29 -38 -40 -28 -58 44 -81 98 -32 125 -78 182 -303 42 -162
70 -221 126 -264 33 -25 45 -28 112 -28 50 0 98 8 141 22 110 37 164 43 360
43 196 0 250 -6 360 -43 43 -14 91 -22 142 -22 70 0 79 2 115 31 54 43 88 118
126 275 52 209 81 257 178 289 72 23 82 41 44 81 -88 92 -250 103 -402 25
-106 -53 -169 -123 -199 -219 -19 -62 -53 -107 -79 -107 -24 0 -19 76 15 207
17 63 30 134 30 158 0 74 -36 165 -135 335 -97 168 -156 240 -196 240 -13 0
-39 -18 -64 -43z"/>
<path d="M5140 12010 c-7 -13 -7 -34 0 -67 15 -66 8 -85 -43 -110 -108 -52
-260 -55 -552 -8 -268 43 -447 36 -637 -26 -411 -134 -671 -471 -778 -1011
l-11 -58 -80 80 c-147 146 -277 188 -401 127 l-57 -28 -45 35 c-71 54 -163 80
-281 81 -71 0 -115 -5 -152 -18 -59 -21 -140 -87 -149 -123 -4 -15 -19 -30
-38 -38 -44 -18 -102 -89 -123 -150 -13 -36 -18 -80 -18 -151 1 -118 27 -210
81 -281 l35 -45 -28 -57 c-61 -124 -19 -254 128 -401 l79 -80 -37 -6 c-86 -15
-271 -67 -356 -101 -395 -156 -627 -422 -713 -816 -25 -114 -21 -310 10 -503
48 -291 46 -444 -7 -552 -25 -50 -42 -57 -112 -44 -66 12 -89 0 -81 -41 19
-97 137 -149 257 -115 60 18 131 72 155 118 12 25 20 29 55 29 36 0 85 19 131
52 12 9 20 9 36 -3 232 -166 293 -200 413 -225 143 -31 331 -1 459 73 132 76
246 197 310 328 54 109 71 180 77 316 4 96 2 130 -16 200 -21 85 -33 112 -153
339 -78 147 -92 211 -63 286 19 50 38 64 90 64 30 0 39 -5 53 -31 9 -18 27
-43 39 -58 l22 -26 22 21 c24 24 35 92 25 147 -9 49 -67 111 -138 146 -50 25
-73 31 -127 31 -116 0 -175 -29 -227 -112 -20 -31 -30 -38 -57 -38 -74 -1
-153 -61 -177 -136 -17 -51 -9 -151 18 -204 12 -24 20 -45 19 -46 -1 -1 -27 4
-57 12 -148 41 -306 -20 -365 -140 -25 -51 -26 -60 -20 -145 7 -82 5 -96 -16
-143 -57 -131 -1 -281 131 -348 45 -23 156 -28 183 -7 16 11 13 19 -38 93 -64
93 -77 142 -51 193 19 36 50 51 104 51 90 0 163 -46 203 -127 33 -68 33 -207
1 -274 -43 -88 -84 -108 -223 -109 -90 0 -209 28 -282 67 -29 16 -84 60 -124
99 -59 59 -80 89 -121 175 -62 130 -83 207 -91 334 -19 310 62 556 241 733 77
76 147 123 252 173 275 127 555 130 814 7 228 -107 458 -331 569 -553 32 -63
70 -172 75 -215 4 -35 -27 -30 -97 16 -34 23 -71 38 -97 41 -59 7 -146 -27
-197 -77 -42 -41 -91 -126 -91 -158 0 -24 40 -42 108 -49 47 -5 57 -11 88 -47
129 -149 152 -385 61 -627 -106 -282 -295 -505 -597 -706 -107 -70 -171 -105
-285 -153 -187 -79 -245 -127 -245 -204 0 -28 7 -52 19 -67 17 -22 27 -24 103
-24 104 1 193 27 341 102 533 267 972 740 1145 1234 216 617 19 1267 -557
1839 -117 117 -212 192 -512 410 -138 100 -289 253 -328 332 -25 49 -31 74
-31 125 0 121 32 153 154 153 147 0 295 -130 536 -470 140 -198 204 -275 340
-411 307 -308 659 -517 1005 -597 382 -89 801 -12 1165 213 376 234 682 567
884 965 83 163 110 250 111 358 0 76 -2 86 -24 103 -36 29 -102 26 -141 -8
-44 -37 -68 -78 -134 -228 -63 -143 -116 -234 -218 -373 -187 -253 -409 -422
-679 -513 -120 -41 -299 -52 -395 -24 -78 22 -146 58 -193 100 -33 30 -39 42
-44 87 -7 68 -25 108 -49 108 -30 0 -114 -47 -153 -85 -54 -55 -79 -110 -79
-181 -1 -54 3 -67 37 -117 47 -72 52 -103 17 -99 -43 5 -152 43 -215 75 -261
130 -510 413 -599 680 -22 65 -46 208 -46 273 0 139 44 322 107 449 123 243
290 378 563 452 51 14 104 18 245 18 213 0 266 -11 424 -87 85 -41 116 -62
175 -121 39 -40 83 -95 99 -124 39 -73 67 -192 67 -282 -1 -139 -21 -180 -109
-223 -67 -32 -206 -32 -274 1 -80 39 -127 115 -127 204 0 53 15 84 51 103 51
26 100 13 193 -51 74 -51 82 -54 93 -38 21 27 16 138 -7 183 -67 131 -218 188
-348 131 -47 -21 -61 -23 -142 -17 -104 9 -152 -7 -212 -66 -75 -75 -107 -216
-74 -323 8 -27 14 -51 12 -52 -2 -2 -23 6 -47 19 -52 27 -151 36 -203 18 -75
-24 -135 -103 -136 -177 0 -27 -7 -37 -38 -57 -83 -52 -112 -111 -112 -227 0
-54 6 -77 31 -127 35 -71 97 -129 146 -138 55 -10 123 1 147 25 l21 22 -26 22
c-15 12 -40 30 -58 39 -26 14 -31 23 -31 53 0 52 14 71 65 90 33 13 58 16 97
11 65 -9 106 -27 278 -121 90 -49 166 -83 228 -101 85 -24 105 -26 215 -21
136 5 209 22 312 71 242 115 408 355 422 611 10 172 -31 289 -169 482 -67 96
-79 118 -70 132 32 45 52 94 52 130 0 36 4 42 38 61 82 46 133 167 113 266
-13 67 -39 106 -85 128 -45 21 -63 20 -76 -4z m-633 -1484 c15 -8 39 -25 51
-39 24 -26 45 -93 35 -110 -11 -18 -114 1 -162 30 -39 24 -171 166 -171 184 0
8 214 -47 247 -65z m-2227 -2041 c81 -64 114 -105 135 -164 17 -49 20 -107 5
-116 -5 -3 -27 -1 -48 4 -39 11 -80 47 -102 91 -14 26 -70 240 -63 240 2 0 35
-25 73 -55z"/>
<path d="M7580 12011 c-128 -68 -109 -298 33 -390 33 -22 37 -29 37 -66 0 -29
9 -56 31 -89 16 -27 28 -54 26 -60 -3 -6 -40 -60 -83 -121 -130 -180 -170
-300 -161 -470 15 -269 205 -526 465 -631 141 -57 325 -70 468 -34 80 20 109
33 334 152 148 78 211 92 286 63 35 -13 49 -26 60 -51 19 -45 5 -78 -45 -104
-83 -42 -67 -90 33 -98 72 -6 117 11 161 60 59 65 85 131 85 216 0 108 -29
165 -112 218 -31 20 -38 30 -38 57 0 40 -30 105 -61 134 -64 58 -177 70 -267
28 -30 -14 -55 -25 -57 -25 -1 0 4 24 12 53 17 62 12 175 -10 227 -29 67 -74
117 -131 145 -51 25 -60 26 -144 20 -83 -7 -95 -5 -157 20 -55 22 -77 26 -114
20 -98 -14 -195 -86 -227 -170 -18 -47 -16 -157 2 -175 7 -7 38 9 91 46 92 63
141 76 192 50 41 -22 54 -57 48 -129 -9 -105 -80 -178 -194 -199 -78 -14 -156
-4 -217 30 -77 42 -88 64 -94 179 -8 181 43 318 164 440 59 59 90 80 175 121
142 68 206 84 378 89 165 6 255 -5 379 -47 211 -72 359 -202 464 -406 147
-286 155 -584 23 -859 -132 -275 -398 -519 -663 -609 -83 -29 -124 -35 -129
-21 -2 6 16 42 39 80 38 63 43 76 42 130 0 70 -25 125 -79 180 -39 38 -123 85
-153 85 -24 0 -40 -36 -48 -105 -6 -47 -12 -60 -45 -90 -49 -44 -139 -89 -210
-105 -36 -8 -98 -11 -170 -8 -93 4 -131 11 -206 36 -305 104 -539 295 -750
612 -70 106 -102 167 -164 310 -41 95 -65 137 -100 173 -41 43 -50 47 -91 47
-30 0 -54 -7 -69 -19 -21 -17 -23 -26 -23 -107 1 -109 28 -195 115 -365 276
-542 794 -997 1299 -1142 208 -60 467 -77 660 -43 317 55 629 213 940 474 178
149 333 326 512 582 105 150 192 252 284 332 94 82 151 108 237 108 115 0 147
-31 147 -144 0 -75 -12 -115 -54 -176 -48 -71 -203 -219 -311 -295 -442 -315
-630 -496 -840 -810 -407 -608 -412 -1245 -15 -1842 232 -351 550 -631 931
-823 153 -77 242 -104 345 -105 103 0 124 14 124 86 0 82 -64 135 -255 214
-105 43 -168 77 -287 157 -307 205 -498 440 -600 741 -26 78 -32 111 -36 214
-5 145 13 222 76 318 51 79 67 91 127 98 66 7 105 25 105 49 0 30 -47 114 -85
153 -55 55 -110 79 -181 80 -53 0 -67 -4 -115 -36 -60 -40 -95 -54 -102 -42
-9 14 42 171 77 241 132 260 413 507 679 596 67 22 209 46 276 46 83 0 237
-26 316 -53 365 -125 570 -387 605 -770 27 -312 -78 -598 -277 -749 -106 -80
-226 -113 -381 -105 -113 5 -134 18 -177 102 -27 53 -30 70 -29 145 0 68 5 95
23 133 39 80 115 127 204 127 53 0 84 -15 103 -51 26 -52 13 -101 -50 -193
-51 -74 -55 -82 -39 -93 9 -8 46 -13 82 -13 55 0 75 5 119 30 64 38 117 113
134 192 11 51 10 61 -12 114 -20 50 -24 76 -25 174 0 107 -2 118 -28 162 -27
46 -81 90 -142 117 -47 20 -153 24 -215 7 -30 -8 -56 -13 -57 -12 -1 1 8 22
20 47 31 63 36 172 9 225 -35 68 -104 114 -172 114 -24 0 -35 8 -54 38 -53 83
-109 112 -219 112 -62 0 -83 -5 -135 -31 -71 -35 -129 -97 -138 -146 -10 -55
1 -123 25 -147 l22 -21 22 26 c12 15 30 40 39 58 14 26 23 31 53 31 52 0 71
-14 91 -65 33 -87 18 -133 -141 -435 -77 -148 -99 -240 -92 -390 8 -182 51
-303 152 -436 206 -269 551 -366 834 -234 36 17 116 67 178 111 62 43 115 79
117 79 3 0 27 -13 53 -30 33 -21 59 -30 90 -30 37 0 44 -4 57 -29 24 -46 95
-100 154 -117 94 -28 193 0 238 65 48 71 24 106 -61 90 -73 -14 -89 -7 -113
49 -56 130 -55 253 4 607 97 583 -182 1063 -736 1268 -90 33 -248 77 -333 92
l-39 6 70 67 c84 81 135 158 157 235 20 69 14 122 -22 189 l-26 47 28 33 c88
103 119 308 70 450 -19 55 -86 135 -120 144 -13 3 -29 19 -36 35 -17 43 -93
105 -152 126 -37 13 -81 18 -152 18 -118 -1 -210 -27 -281 -81 l-45 -35 -57
28 c-84 41 -147 38 -245 -10 -57 -28 -97 -58 -156 -118 l-80 -80 -6 38 c-15
86 -57 240 -91 331 -111 298 -295 516 -541 641 -227 114 -461 140 -793 86
-285 -46 -443 -44 -540 5 -58 29 -63 40 -51 105 17 91 -7 115 -79 76z m906
-1490 c-86 -108 -153 -150 -238 -151 -45 0 -49 6 -38 54 11 48 51 91 105 111
45 18 218 62 224 58 2 -1 -22 -34 -53 -72z m2085 -2088 c-31 -120 -41 -145
-79 -186 -26 -28 -94 -53 -112 -42 -27 17 1 133 46 192 23 31 152 141 165 142
4 1 -5 -47 -20 -106z"/>
<path d="M6225 11450 c-170 -24 -319 -77 -422 -150 -80 -55 -123 -105 -157
-182 -42 -91 -42 -114 2 -193 83 -151 187 -153 241 -6 38 105 87 145 218 178
54 14 114 17 293 17 179 0 239 -3 293 -17 131 -33 180 -73 218 -176 25 -70 53
-100 100 -107 50 -8 95 27 141 111 31 57 37 77 33 105 -9 49 -49 135 -86 182
-73 92 -237 178 -418 219 -98 22 -358 33 -456 19z"/>
<path d="M6345 11017 c-40 -40 -52 -82 -60 -207 -4 -52 -13 -122 -20 -155 -8
-33 -16 -100 -20 -148 -9 -125 -37 -226 -95 -342 -84 -169 -199 -283 -402
-399 -242 -139 -331 -210 -388 -310 -56 -97 -39 -124 95 -152 44 -9 81 -18 83
-19 2 -2 -30 -28 -71 -58 -165 -122 -282 -259 -323 -379 -29 -81 -26 -283 4
-359 33 -82 90 -159 145 -193 41 -25 61 -30 131 -34 63 -3 90 -1 114 12 36 18
54 63 31 77 -45 26 -125 88 -142 111 -28 37 -33 114 -10 158 25 47 71 76 172
106 47 14 115 37 150 51 l64 27 16 -24 c52 -75 103 -98 175 -79 89 24 148 84
230 240 61 114 92 206 112 326 25 159 45 259 55 274 20 31 38 -34 65 -224 18
-128 52 -244 102 -342 83 -165 152 -245 235 -270 83 -25 139 -2 188 74 l16 25
64 -27 c35 -14 103 -37 150 -51 101 -30 147 -59 172 -106 23 -44 18 -121 -10
-158 -17 -23 -97 -85 -142 -111 -23 -14 -5 -56 32 -76 52 -28 178 -18 241 19
107 63 177 215 177 386 0 197 -99 358 -329 532 -51 39 -91 72 -90 73 2 2 39
10 83 19 134 28 151 55 95 153 -58 102 -129 157 -411 323 -179 104 -296 221
-373 370 -56 109 -83 201 -97 331 -5 57 -17 136 -24 174 -8 39 -17 111 -20
160 -3 50 -11 108 -16 129 -13 47 -68 106 -99 106 -12 0 -37 -15 -55 -33z"/>
<path d="M3985 9236 c-27 -7 -63 -20 -80 -28 -39 -21 -108 -94 -129 -135 -9
-18 -33 -41 -54 -52 -42 -21 -112 -93 -135 -137 -26 -52 -38 -134 -27 -191 25
-135 122 -244 290 -328 30 -15 57 -29 59 -31 2 -2 -10 -19 -27 -38 -97 -111
-136 -272 -97 -403 22 -72 90 -147 156 -168 143 -48 309 40 309 162 0 36 -6
50 -29 74 -16 16 -39 29 -51 29 -40 0 -85 -30 -112 -75 -26 -43 -28 -44 -57
-34 -17 6 -43 25 -57 42 -23 27 -26 38 -22 89 6 76 44 132 117 170 45 24 65
28 130 28 289 -1 487 -158 573 -456 20 -70 23 -100 22 -259 0 -167 -2 -187
-28 -270 -15 -49 -45 -126 -66 -170 -155 -315 -591 -613 -927 -634 -98 -6
-125 -13 -109 -28 4 -5 53 -11 109 -14 340 -21 779 -324 931 -642 19 -40 47
-112 62 -162 26 -84 28 -103 28 -270 1 -159 -2 -189 -22 -259 -51 -175 -162
-331 -280 -390 -79 -40 -192 -66 -287 -66 -69 0 -90 4 -136 28 -73 37 -111 92
-117 170 -4 51 -1 62 22 89 14 17 40 36 57 42 29 10 31 9 57 -34 27 -45 72
-75 112 -75 12 0 35 14 52 30 28 28 30 36 26 80 -6 62 -40 107 -104 139 -60
30 -130 38 -192 20 -67 -19 -145 -98 -166 -169 -40 -134 -2 -294 96 -406 17
-19 29 -36 27 -38 -2 -2 -31 -17 -64 -34 -75 -37 -175 -112 -207 -154 -87
-115 -107 -253 -51 -362 23 -44 93 -116 135 -137 23 -12 45 -34 57 -57 27 -53
97 -117 156 -143 104 -47 240 -22 346 62 45 36 114 129 154 209 15 30 29 57
31 59 2 2 19 -10 38 -27 111 -97 272 -136 403 -97 72 22 147 90 168 156 33 97
-1 222 -74 278 -27 21 -46 26 -89 26 -47 0 -57 -4 -78 -28 -13 -15 -24 -37
-24 -49 0 -39 30 -83 75 -110 43 -26 44 -28 34 -57 -6 -17 -25 -43 -42 -57
-27 -23 -38 -26 -89 -22 -121 9 -198 105 -198 247 1 242 106 415 312 515 130
63 190 77 353 83 382 14 659 -131 907 -478 126 -176 206 -378 217 -546 6 -98
13 -125 28 -109 5 4 11 53 15 109 15 232 157 512 368 727 146 150 312 241 510
282 128 27 348 21 460 -12 170 -49 325 -162 384 -278 40 -79 66 -192 66 -287
0 -69 -4 -90 -27 -136 -38 -73 -93 -111 -171 -117 -51 -4 -62 -1 -89 22 -17
14 -36 40 -41 56 -12 32 -12 31 42 61 32 17 66 71 66 106 0 36 -40 74 -86 80
-127 17 -227 -148 -182 -301 18 -61 101 -140 168 -160 134 -40 294 -2 406 96
19 17 36 29 38 27 2 -2 17 -31 34 -64 38 -77 112 -175 157 -209 105 -80 239
-103 340 -57 59 26 129 90 156 143 11 23 34 46 57 57 20 11 56 39 79 63 116
119 116 295 2 439 -36 45 -129 114 -209 154 -30 15 -57 29 -59 31 -2 2 10 19
27 38 98 112 136 272 96 406 -20 67 -99 150 -160 168 -152 45 -318 -56 -301
-182 6 -46 44 -86 80 -86 35 0 89 34 106 66 30 54 29 54 61 42 16 -5 42 -24
56 -41 23 -27 26 -38 22 -89 -6 -78 -44 -133 -117 -170 -46 -24 -67 -28 -136
-28 -95 0 -208 26 -287 66 -116 59 -229 214 -278 384 -31 106 -39 322 -16 444
53 278 194 482 471 681 91 65 266 153 370 185 40 12 114 25 172 28 56 4 105
10 109 15 15 15 -11 22 -109 29 -123 8 -204 32 -352 103 -293 141 -525 376
-615 624 -48 131 -63 236 -57 396 6 163 20 223 83 353 100 206 273 311 515
312 142 0 238 -77 247 -198 4 -51 1 -62 -22 -89 -43 -51 -106 -61 -106 -18 0
22 -62 75 -97 81 -66 12 -114 -51 -99 -131 9 -47 72 -108 133 -129 180 -61
343 69 343 274 0 107 -41 214 -112 296 -17 19 -29 36 -27 38 2 2 29 16 59 31
192 96 293 227 293 380 0 115 -65 224 -165 276 -23 11 -46 34 -57 57 -11 20
-39 56 -63 79 -119 116 -295 116 -439 2 -45 -36 -114 -129 -154 -209 -15 -30
-29 -57 -31 -59 -2 -2 -19 10 -38 27 -113 99 -276 137 -407 95 -73 -23 -150
-99 -168 -165 -39 -140 49 -298 166 -298 36 0 50 6 74 29 30 31 35 53 20 94
-11 28 -60 77 -76 77 -43 0 -32 64 18 106 27 23 38 26 89 22 78 -6 133 -44
171 -117 23 -46 27 -67 27 -136 0 -95 -26 -208 -66 -287 -59 -118 -215 -229
-390 -280 -70 -20 -100 -23 -259 -22 -167 0 -187 2 -270 28 -296 90 -544 317
-700 641 -69 143 -96 237 -104 357 -6 93 -13 119 -28 104 -5 -4 -11 -53 -14
-109 -21 -336 -319 -772 -634 -927 -44 -21 -120 -51 -170 -66 -83 -26 -103
-28 -270 -28 -159 -1 -189 2 -259 22 -298 86 -455 284 -456 573 0 142 77 238
198 247 51 4 62 1 89 -22 17 -14 36 -40 42 -57 10 -29 9 -31 -34 -57 -45 -27
-75 -72 -75 -112 0 -12 13 -35 29 -51 62 -62 173 -24 222 77 90 186 -41 374
-261 374 -107 0 -214 -41 -296 -112 -19 -17 -36 -29 -38 -27 -2 2 -16 29 -31
59 -40 80 -109 173 -154 209 -89 71 -203 101 -296 77z m135 -161 c69 -36 114
-131 170 -362 23 -92 50 -192 61 -222 11 -29 18 -56 15 -58 -2 -2 -21 3 -42
12 -22 9 -122 36 -223 61 -301 74 -391 129 -391 239 0 45 37 125 58 125 9 0
35 -20 58 -45 34 -38 47 -45 79 -45 30 0 45 7 76 39 32 31 39 46 39 76 0 32
-7 45 -45 79 -25 23 -45 49 -45 58 0 21 76 57 123 58 21 0 51 -7 67 -15z
m4705 -6 c28 -13 45 -28 45 -38 0 -10 -20 -36 -45 -58 -38 -34 -45 -46 -45
-77 0 -52 64 -116 117 -116 30 0 43 7 77 45 23 25 49 45 58 45 21 0 58 -80 58
-125 0 -110 -90 -165 -391 -239 -101 -25 -201 -52 -223 -61 -21 -9 -40 -14
-42 -12 -2 2 3 21 11 41 9 20 31 103 51 184 19 81 46 181 60 223 60 184 147
245 269 188z m-2401 -456 c51 -109 173 -272 295 -393 206 -205 399 -320 633
-377 97 -24 367 -24 448 -1 30 9 56 15 57 14 1 -1 -5 -29 -15 -61 -24 -85 -23
-342 1 -443 55 -231 173 -429 376 -633 122 -121 286 -244 394 -295 20 -10 37
-20 37 -23 0 -3 -37 -26 -82 -51 -300 -165 -573 -471 -684 -767 -46 -123 -59
-198 -59 -363 0 -116 5 -170 17 -215 10 -32 16 -60 15 -62 -2 -1 -30 5 -62 15
-93 26 -352 23 -464 -6 -232 -61 -447 -195 -648 -406 -86 -89 -219 -274 -259
-358 -10 -21 -20 -38 -23 -38 -3 0 -26 37 -51 82 -165 300 -471 573 -767 684
-123 46 -198 59 -363 59 -116 0 -170 -5 -215 -17 -32 -10 -60 -16 -61 -15 -1
1 4 27 13 57 21 78 28 270 14 371 -53 364 -346 755 -731 975 -100 56 -99 55
-83 61 34 12 208 123 278 178 44 34 123 107 175 161 179 187 294 388 347 606
24 97 24 367 1 448 -9 30 -16 56 -15 57 1 1 27 -6 57 -15 81 -23 351 -23 448
1 220 53 419 168 610 352 128 122 262 299 318 418 10 20 21 37 24 37 3 0 14
-17 24 -37z m-2054 -4248 c0 -2 -9 -28 -19 -57 -11 -29 -38 -129 -61 -221 -69
-285 -126 -377 -235 -377 -45 0 -125 37 -125 58 0 9 20 35 45 58 38 34 45 47
45 77 0 53 -64 117 -116 117 -31 0 -43 -7 -77 -45 -22 -25 -48 -45 -58 -45
-23 0 -59 79 -59 128 0 27 9 51 30 80 43 60 139 102 345 152 94 23 193 50 220
60 53 20 65 23 65 15z m4122 -14 c29 -11 129 -38 221 -61 287 -70 377 -126
377 -236 0 -47 -36 -124 -58 -124 -9 0 -35 20 -58 45 -34 38 -47 45 -77 45
-53 0 -117 -64 -117 -117 0 -30 7 -43 45 -77 25 -23 45 -49 45 -58 0 -22 -77
-58 -124 -58 -112 0 -166 89 -241 396 -25 102 -52 202 -60 221 -22 52 -25 50
47 24z"/>
<path d="M6361 8280 c-55 -136 -102 -186 -331 -360 -63 -48 -129 -103 -146
-121 -89 -97 -173 -299 -174 -416 0 -53 35 -150 60 -163 29 -15 117 6 172 41
27 18 88 74 135 126 76 82 136 133 157 133 10 0 7 -43 -10 -105 -8 -33 -40
-102 -69 -153 -73 -123 -89 -175 -82 -260 9 -123 50 -199 247 -461 41 -55 77
-100 80 -100 3 0 31 34 62 77 31 42 82 111 114 152 75 100 110 162 134 239 38
121 25 199 -58 343 -27 46 -55 102 -65 125 -18 47 -33 143 -22 143 22 0 80
-49 158 -133 98 -107 159 -150 235 -166 70 -14 85 -5 112 66 38 99 19 205 -63
372 -54 108 -95 154 -236 260 -229 173 -277 225 -332 361 -18 44 -36 80 -39
80 -3 0 -21 -36 -39 -80z"/>
<path d="M5315 7076 c-106 -27 -249 -100 -314 -160 -18 -17 -73 -83 -121 -146
-174 -229 -224 -276 -360 -331 -44 -18 -80 -36 -80 -39 0 -4 32 -19 70 -34
141 -56 198 -108 382 -351 42 -55 91 -114 109 -131 96 -89 299 -173 416 -174
53 0 150 35 163 60 12 22 0 90 -25 145 -10 23 -64 85 -128 147 -104 101 -147
151 -147 172 0 12 94 -2 143 -21 23 -10 79 -38 125 -65 45 -26 103 -54 128
-63 128 -43 282 5 467 148 34 26 97 73 139 105 42 31 77 59 77 62 0 3 -34 31
-77 62 -42 31 -113 84 -157 117 -151 114 -259 157 -376 149 -56 -4 -81 -13
-155 -53 -49 -27 -109 -59 -134 -72 -47 -24 -165 -51 -176 -40 -13 13 38 76
129 160 109 99 153 162 167 236 13 69 3 85 -65 110 -62 23 -126 25 -200 7z"/>
<path d="M7282 7069 c-69 -27 -77 -44 -58 -120 21 -80 57 -130 166 -229 87
-80 139 -144 126 -157 -11 -11 -126 15 -174 40 -26 13 -87 46 -136 72 -74 40
-99 49 -155 53 -118 8 -226 -35 -381 -153 -47 -35 -117 -88 -157 -117 -40 -29
-72 -55 -72 -58 0 -3 45 -39 100 -80 259 -195 338 -238 461 -247 83 -7 142 11
253 76 44 26 99 55 122 64 47 18 143 33 143 22 0 -22 -51 -83 -131 -156 -50
-45 -104 -102 -120 -125 -37 -54 -64 -155 -50 -183 14 -25 110 -61 164 -61
117 1 319 85 416 174 18 17 73 84 123 149 168 222 225 274 358 328 44 18 80
36 80 39 0 3 -36 21 -80 39 -136 55 -188 103 -361 332 -106 141 -152 182 -260
236 -165 82 -280 101 -377 62z"/>
<path d="M6320 6259 c-214 -284 -244 -344 -245 -484 0 -89 0 -91 49 -180 27
-49 60 -110 73 -135 24 -47 51 -165 40 -176 -13 -13 -77 39 -157 126 -99 109
-149 145 -229 166 -74 18 -92 11 -116 -48 -46 -116 -18 -263 82 -433 48 -81
81 -114 198 -203 243 -184 295 -241 351 -382 15 -38 30 -70 34 -70 3 0 21 36
39 80 55 136 103 188 332 361 141 106 182 152 236 260 82 167 101 273 63 372
-28 74 -44 82 -121 63 -80 -21 -130 -57 -229 -166 -74 -80 -133 -130 -155
-130 -11 0 4 96 22 143 9 23 38 78 64 122 65 111 83 170 76 253 -9 123 -65
229 -227 433 -45 56 -84 108 -87 116 -3 7 -8 13 -12 12 -3 0 -40 -45 -81 -100z"/>
<path d="M4062 7679 c-92 -11 -154 -35 -236 -90 -82 -54 -170 -144 -253 -256
-30 -41 -56 -73 -58 -71 -1 2 -10 39 -19 83 -28 134 -55 151 -152 96 -100 -58
-166 -141 -317 -402 -31 -53 -81 -128 -112 -167 -145 -181 -377 -300 -622
-317 -49 -4 -115 -12 -148 -20 -33 -7 -103 -16 -155 -20 -125 -8 -167 -20
-207 -60 -42 -42 -42 -68 0 -110 39 -39 81 -52 202 -60 50 -3 122 -12 160 -20
39 -8 119 -19 178 -25 131 -13 215 -38 327 -96 157 -81 264 -191 386 -399 154
-262 206 -327 307 -385 99 -57 126 -39 154 100 16 78 17 82 32 63 9 -11 45
-57 80 -102 115 -146 239 -244 360 -282 117 -36 285 -23 389 30 122 63 173
132 180 246 5 86 0 112 -28 143 -29 31 -53 28 -74 -10 -74 -129 -157 -173
-250 -134 -47 19 -82 75 -112 176 -14 47 -37 114 -51 149 l-27 64 25 16 c76
49 99 105 74 188 -25 83 -105 153 -270 235 -100 50 -182 76 -293 94 -219 34
-282 49 -282 66 0 13 75 30 282 62 119 19 213 51 326 111 157 84 220 145 242
236 16 64 -12 131 -64 156 -20 9 -36 21 -36 27 0 6 11 38 24 71 14 33 36 99
50 146 31 104 71 162 122 179 45 15 109 7 143 -18 22 -16 85 -96 110 -141 14
-23 59 -5 77 31 26 51 16 181 -20 242 -70 120 -263 196 -444 175z"/>
<path d="M8605 7678 c-83 -11 -144 -33 -212 -77 -96 -63 -133 -133 -133 -251
0 -59 4 -73 26 -100 15 -18 34 -30 44 -28 10 2 38 32 62 67 23 36 55 74 70 84
38 28 114 33 158 10 49 -26 75 -70 116 -202 20 -64 45 -133 55 -153 l19 -38
-41 -20 c-58 -30 -86 -93 -69 -159 22 -91 85 -152 242 -236 113 -60 207 -92
326 -110 146 -23 257 -46 273 -56 31 -20 -34 -38 -224 -65 -137 -19 -246 -53
-361 -112 -162 -83 -234 -151 -256 -242 -16 -68 11 -130 69 -160 l41 -20 -19
-38 c-10 -20 -35 -89 -55 -153 -41 -132 -67 -176 -116 -202 -44 -23 -120 -18
-158 10 -15 11 -47 49 -72 86 -25 36 -52 66 -62 67 -9 0 -28 -14 -42 -31 -22
-26 -26 -40 -26 -98 0 -90 24 -155 74 -205 83 -83 204 -127 346 -127 197 0
358 99 532 329 39 51 72 91 73 90 2 -2 10 -38 19 -81 27 -134 56 -153 153 -97
104 59 159 130 324 415 51 88 85 131 169 216 88 88 119 112 195 151 118 60
201 85 332 98 59 6 128 15 153 21 25 6 97 15 160 20 63 6 133 15 154 21 47 12
106 67 106 98 0 31 -59 86 -106 99 -21 5 -82 13 -134 16 -52 4 -122 13 -155
20 -33 8 -100 17 -150 20 -125 10 -223 37 -345 97 -95 46 -115 61 -210 157
-84 85 -118 128 -169 216 -163 281 -222 356 -324 415 -97 56 -126 37 -153 -97
-9 -43 -17 -79 -19 -81 -1 -1 -34 39 -73 90 -193 254 -382 356 -607 326z"/>
<path d="M633 7358 c-45 -48 -65 -94 -70 -163 -9 -102 29 -217 105 -318 44
-58 90 -89 166 -113 61 -19 106 -53 106 -79 0 -24 -100 -16 -225 19 -169 47
-229 33 -480 -112 -156 -89 -235 -154 -235 -191 0 -40 72 -99 240 -196 170
-99 261 -135 335 -135 24 0 95 14 158 30 124 32 207 39 207 17 0 -30 -34 -57
-97 -78 -108 -35 -174 -94 -229 -202 -78 -153 -68 -313 25 -402 40 -38 58 -28
81 44 32 97 80 126 289 178 157 38 232 72 275 126 29 36 31 45 31 115 0 51 -8
99 -22 142 -37 111 -44 168 -44 360 0 188 11 272 46 370 9 25 19 77 21 115 11
145 -60 201 -336 265 -168 39 -237 85 -261 173 -20 76 -39 84 -86 35z"/>
<path d="M12102 7378 c-5 -7 -15 -32 -21 -55 -24 -88 -93 -134 -261 -173 -205
-47 -282 -86 -321 -160 -20 -37 -24 -103 -10 -160 5 -19 21 -80 35 -135 24
-91 27 -117 27 -290 0 -196 -7 -254 -44 -365 -14 -43 -22 -91 -22 -142 0 -70
2 -79 31 -115 43 -54 118 -88 275 -126 209 -52 257 -81 289 -178 23 -72 41
-82 81 -44 92 88 103 250 25 402 -55 108 -121 167 -229 202 -63 21 -97 48 -97
78 0 22 83 15 207 -17 63 -16 134 -30 158 -30 74 0 165 36 335 135 168 97 240
156 240 196 0 37 -79 102 -235 191 -251 145 -311 159 -480 112 -125 -35 -225
-43 -225 -19 0 26 45 60 107 79 32 10 75 31 95 46 110 80 187 252 175 387 -7
71 -26 114 -70 161 -33 34 -49 39 -65 20z"/>
<path d="M1735 7176 c-183 -58 -303 -222 -368 -500 -29 -125 -30 -410 -3 -536
55 -255 164 -425 318 -495 91 -41 114 -41 193 3 84 46 119 91 111 141 -7 47
-37 75 -107 100 -103 38 -143 87 -176 218 -25 98 -25 488 0 586 33 131 73 180
176 218 70 25 100 53 107 100 8 51 -27 95 -111 141 -77 41 -82 42 -140 24z"/>
<path d="M10925 7152 c-84 -46 -119 -91 -111 -141 7 -47 37 -75 107 -100 102
-38 140 -83 175 -212 15 -53 18 -104 19 -299 0 -215 -2 -242 -23 -316 -31
-109 -63 -146 -166 -194 -91 -41 -105 -54 -112 -102 -8 -49 27 -94 111 -140
81 -45 102 -44 203 2 114 53 212 177 266 338 48 141 61 225 61 412 0 187 -13
271 -61 412 -54 161 -152 285 -266 338 -101 46 -122 47 -203 2z"/>
<path d="M1893 6203 c-42 -6 -63 -36 -63 -92 0 -40 5 -49 48 -90 36 -36 78
-60 182 -105 381 -164 677 -421 830 -717 116 -226 152 -436 102 -604 -16 -53
-61 -134 -97 -174 -30 -33 -43 -39 -90 -45 -69 -8 -105 -24 -105 -48 0 -30 47
-114 85 -153 55 -54 110 -79 180 -79 54 -1 67 4 130 42 38 23 74 41 80 39 14
-5 8 -46 -21 -129 -89 -262 -323 -519 -600 -659 -273 -137 -577 -131 -868 19
-303 155 -457 427 -457 803 1 452 252 759 621 759 137 -1 180 -21 220 -107 44
-93 35 -236 -20 -311 -42 -59 -90 -84 -170 -90 -63 -4 -70 -3 -94 21 -55 55
-47 112 29 222 37 52 52 82 45 89 -5 5 -37 12 -70 14 -77 6 -135 -16 -189 -69
-85 -85 -107 -193 -62 -297 21 -47 23 -61 16 -143 -6 -85 -5 -94 20 -145 28
-57 78 -102 145 -131 52 -22 165 -27 228 -10 28 8 52 13 52 12 0 -2 -11 -27
-25 -57 -44 -94 -28 -216 36 -275 31 -29 90 -53 129 -53 24 0 35 -8 54 -37 53
-84 110 -113 218 -113 85 0 151 26 216 84 52 47 65 82 60 156 -8 106 -52 124
-100 38 -42 -76 -121 -68 -153 16 -28 73 -15 138 57 275 128 244 144 278 161
348 21 88 22 237 2 334 -31 147 -93 263 -197 370 -215 221 -512 288 -771 172
-34 -15 -111 -63 -172 -107 -60 -43 -115 -80 -121 -83 -6 -2 -33 10 -60 26
-33 22 -60 31 -89 31 -37 0 -44 4 -66 37 -53 82 -165 133 -256 117 -81 -14
-153 -79 -153 -138 0 -27 34 -37 91 -26 69 13 81 8 106 -44 53 -107 55 -263 8
-551 -54 -330 -29 -558 88 -790 127 -255 377 -456 692 -558 83 -27 211 -60
278 -72 l38 -6 -80 -80 c-60 -59 -90 -99 -118 -156 -48 -98 -51 -161 -10 -245
l28 -57 -35 -45 c-54 -71 -80 -163 -81 -281 0 -71 5 -115 18 -152 21 -59 83
-135 126 -152 16 -7 32 -23 35 -36 9 -34 89 -101 144 -120 142 -49 347 -18
450 70 l33 28 48 -26 c66 -37 117 -43 187 -22 78 22 154 73 236 157 l67 70 6
-39 c29 -167 100 -379 172 -511 240 -446 672 -643 1213 -554 306 50 445 53
551 13 83 -32 93 -47 81 -118 -16 -94 16 -118 89 -69 66 45 93 143 66 237 -18
60 -72 131 -118 155 -25 13 -29 20 -29 57 0 31 -9 57 -30 90 -16 26 -30 50
-30 53 0 2 36 55 79 117 44 62 94 142 111 178 119 255 55 556 -165 773 -148
146 -325 216 -544 216 -117 0 -223 -28 -341 -90 -309 -163 -358 -179 -445
-146 -51 20 -65 39 -65 91 0 30 5 39 31 53 18 9 43 27 58 39 l26 22 -21 22
c-24 24 -92 35 -147 25 -49 -9 -111 -67 -146 -138 -26 -52 -31 -73 -31 -135 0
-110 29 -166 113 -219 29 -19 37 -30 37 -54 0 -68 46 -137 114 -172 53 -27
162 -22 225 9 25 12 46 21 47 20 1 -1 -4 -27 -12 -57 -41 -148 20 -306 140
-365 52 -25 60 -26 140 -20 78 7 92 5 162 -21 71 -26 80 -27 132 -16 79 17
154 70 192 134 25 44 30 64 30 119 0 37 -5 72 -12 82 -12 15 -22 11 -101 -43
-95 -65 -132 -74 -188 -45 -34 18 -49 50 -49 104 0 86 45 157 123 198 44 23
65 27 137 28 75 0 92 -4 145 -30 93 -47 100 -63 100 -213 0 -142 -18 -215 -76
-308 -187 -298 -680 -407 -1080 -239 -219 92 -377 272 -466 530 -27 79 -53
233 -53 316 0 67 24 209 46 276 89 266 336 547 596 679 70 35 227 86 241 77
12 -7 -2 -42 -42 -102 -32 -48 -36 -62 -36 -115 1 -71 25 -126 80 -181 39 -38
123 -85 153 -85 24 0 42 39 49 105 7 60 19 76 98 127 96 63 173 81 318 76 103
-4 136 -10 214 -36 304 -104 540 -296 750 -612 72 -109 105 -170 164 -310 41
-95 64 -136 99 -172 43 -45 50 -48 97 -48 74 0 88 20 88 124 -1 102 -28 192
-102 339 -192 385 -473 703 -826 938 -394 261 -808 348 -1226 258 -383 -83
-826 -368 -1135 -730 -50 -58 -145 -181 -210 -273 -145 -203 -222 -294 -317
-374 -93 -79 -128 -95 -217 -100 -127 -7 -162 24 -162 145 0 86 26 143 108
237 82 94 182 179 343 292 75 52 174 125 220 162 413 331 725 799 814 1223 82
391 -8 820 -252 1189 -240 363 -560 648 -949 843 -164 82 -295 115 -401 100z
m534 -1669 c-8 -77 -45 -134 -137 -211 -41 -35 -78 -63 -81 -63 -9 0 47 214
65 249 26 49 72 81 118 81 l41 0 -6 -56z m2167 -2112 c10 -16 -13 -84 -36
-109 -12 -14 -36 -32 -53 -41 -31 -16 -245 -73 -245 -65 0 12 114 145 143 168
58 43 175 72 191 47z"/>
<path d="M10768 6200 c-156 -28 -422 -166 -655 -342 -310 -233 -607 -610 -728
-927 -194 -510 -128 -1005 201 -1497 107 -161 185 -256 324 -394 134 -135 212
-200 410 -340 183 -130 283 -213 361 -304 83 -94 109 -152 109 -238 0 -117
-30 -148 -147 -148 -156 0 -296 122 -551 480 -240 338 -451 547 -747 739 -386
252 -778 342 -1176 271 -563 -100 -1136 -562 -1453 -1170 -90 -174 -119 -262
-120 -374 0 -81 2 -90 23 -107 15 -12 39 -19 69 -19 41 0 50 4 92 48 33 34 59
77 89 147 75 172 99 220 162 316 214 328 447 521 759 630 82 28 112 33 216 37
94 3 134 1 180 -13 76 -22 139 -55 190 -99 36 -31 42 -42 48 -90 8 -70 24
-106 48 -106 25 0 94 35 140 72 47 37 98 137 98 192 0 41 -9 62 -64 158 -15
26 -25 52 -22 57 9 14 136 -23 223 -63 295 -139 562 -457 637 -759 67 -266
-10 -598 -191 -828 -165 -210 -473 -326 -793 -299 -133 12 -233 40 -344 98
-222 114 -336 309 -324 555 6 118 18 139 103 182 53 27 70 30 145 29 101 0
163 -25 210 -83 56 -67 69 -183 26 -226 -54 -54 -112 -46 -221 30 -52 37 -82
52 -89 45 -5 -5 -12 -37 -14 -70 -6 -77 16 -135 69 -189 86 -86 193 -108 298
-62 49 21 63 22 145 16 87 -6 93 -5 146 22 122 64 180 221 135 368 -8 27 -13
50 -12 52 2 1 23 -7 47 -19 47 -24 137 -34 195 -24 70 13 144 107 145 183 0
27 7 37 38 57 83 53 112 110 112 218 0 56 -6 85 -24 124 -48 103 -115 154
-203 154 -46 0 -113 -28 -113 -48 0 -13 29 -37 68 -56 40 -21 55 -54 41 -95
-14 -39 -49 -61 -108 -68 -69 -8 -135 15 -302 106 -192 105 -273 133 -409 139
-249 11 -465 -81 -622 -264 -179 -209 -226 -483 -121 -717 15 -34 63 -111 107
-172 43 -60 80 -115 83 -121 2 -6 -10 -33 -26 -60 -22 -33 -31 -60 -31 -89 0
-37 -4 -44 -37 -66 -138 -90 -161 -313 -40 -388 73 -45 103 -18 86 74 -13 70
-3 84 80 117 83 34 287 31 511 -6 203 -34 382 -38 510 -11 417 87 706 362 850
810 26 84 69 260 70 288 0 5 36 -28 80 -72 149 -149 288 -192 407 -127 l52 29
33 -28 c75 -64 211 -102 331 -92 105 8 177 38 226 95 51 59 64 72 123 123 57
49 87 121 95 226 10 120 -28 256 -92 331 l-28 33 26 48 c37 66 43 117 22 187
-22 78 -73 154 -157 236 l-70 67 39 6 c21 4 74 16 118 26 536 131 850 424 951
889 23 108 22 313 -4 470 -50 304 -53 443 -13 551 31 83 46 93 116 80 65 -12
95 -2 95 31 0 35 -40 87 -84 110 -51 27 -153 29 -208 4 -47 -20 -105 -70 -124
-107 -12 -25 -20 -29 -57 -29 -31 0 -57 -9 -91 -31 -27 -16 -54 -28 -60 -26
-6 3 -60 40 -121 83 -126 90 -204 128 -307 151 -90 19 -226 12 -314 -15 -195
-61 -369 -211 -459 -396 -48 -99 -66 -173 -72 -306 -7 -148 15 -243 89 -385
157 -301 153 -292 153 -369 0 -80 -18 -119 -63 -133 -42 -14 -72 -4 -90 29
-24 43 -52 78 -63 78 -20 0 -49 -66 -49 -113 0 -88 51 -155 154 -203 39 -18
68 -24 124 -24 108 0 165 29 218 113 20 30 30 37 57 37 69 1 149 58 177 127
18 48 9 158 -17 212 -13 25 -21 46 -20 48 2 1 25 -4 52 -12 100 -31 228 -8
305 54 19 15 48 52 63 82 27 52 28 58 22 145 -6 80 -5 97 14 138 44 101 36
178 -30 270 -55 76 -123 110 -214 104 -36 -2 -69 -8 -75 -14 -7 -7 8 -37 46
-91 63 -92 76 -141 50 -192 -19 -36 -50 -51 -104 -51 -90 0 -163 46 -203 127
-18 38 -23 65 -23 133 -1 75 2 92 29 145 43 84 64 97 178 103 164 8 305 -37
414 -133 303 -266 333 -862 60 -1211 -199 -254 -617 -390 -944 -308 -301 75
-620 343 -759 637 -38 83 -77 214 -64 222 12 7 38 -4 99 -44 48 -32 62 -36
115 -36 73 1 151 38 195 94 39 49 81 135 73 148 -13 19 -50 33 -106 39 -50 6
-61 12 -92 48 -44 51 -77 114 -99 190 -28 96 -17 275 23 393 102 301 293 536
600 741 117 79 175 109 322 173 95 41 137 65 173 100 43 41 47 50 47 91 0 66
-21 86 -95 92 -33 3 -81 1 -107 -4z m-288 -1636 c17 -15 37 -39 46 -55 15 -31
75 -249 67 -249 -12 0 -146 115 -169 145 -33 44 -53 99 -54 148 0 37 0 37 39
37 28 0 49 -8 71 -26z m-2159 -2149 c59 -21 100 -54 164 -135 30 -38 55 -71
55 -73 0 -8 -214 49 -245 65 -16 9 -41 27 -53 41 -23 25 -46 93 -36 109 8 13
68 9 115 -7z"/>
<path d="M5333 4523 c-84 -29 -166 -137 -198 -258 -22 -85 -20 -218 5 -299 40
-127 150 -260 326 -393 41 -31 73 -57 72 -58 -2 -2 -38 -10 -81 -19 -134 -27
-153 -56 -97 -153 58 -101 123 -153 386 -307 211 -125 322 -234 405 -401 57
-116 85 -218 94 -342 4 -48 12 -115 20 -148 7 -33 16 -103 20 -155 8 -125 20
-167 60 -207 42 -42 68 -42 110 0 39 39 52 81 60 202 3 50 12 122 20 160 7 39
19 117 24 174 14 131 40 221 99 336 39 76 63 107 151 195 85 84 128 118 216
169 281 163 356 222 415 324 56 97 37 126 -97 153 -43 9 -79 17 -81 19 -1 1
39 34 90 73 230 174 329 335 329 532 0 142 -44 263 -127 346 -50 50 -115 74
-205 74 -58 0 -72 -4 -98 -26 -40 -34 -40 -59 2 -80 125 -64 176 -162 129
-254 -24 -49 -68 -75 -201 -116 -64 -20 -133 -45 -153 -55 l-38 -19 -20 41
c-30 58 -92 85 -160 69 -91 -22 -159 -94 -242 -256 -59 -115 -93 -224 -112
-361 -27 -190 -45 -255 -65 -224 -10 16 -33 127 -56 273 -18 119 -50 213 -110
326 -84 157 -145 220 -236 242 -66 17 -129 -11 -159 -69 l-20 -41 -38 19 c-20
10 -89 35 -153 55 -132 41 -176 67 -202 116 -23 44 -18 120 10 158 10 15 48
47 84 70 35 24 65 52 67 62 2 10 -10 29 -28 44 -28 23 -40 26 -103 25 -40 0
-91 -7 -114 -16z"/>
<path d="M5729 1976 c-27 -16 -62 -63 -98 -135 -20 -39 -21 -49 -11 -89 48
-193 223 -323 522 -389 117 -25 399 -25 516 0 257 56 423 161 492 309 46 101
47 122 2 203 -46 84 -91 119 -141 111 -47 -7 -75 -37 -101 -109 -34 -93 -85
-138 -191 -168 -78 -22 -102 -24 -319 -24 -217 0 -241 2 -319 24 -106 30 -157
75 -191 168 -12 34 -32 71 -45 83 -29 27 -83 34 -116 16z"/>
<path d="M5815 1305 c-77 -40 -114 -111 -160 -305 -46 -192 -81 -249 -176
-280 -72 -23 -82 -41 -44 -81 109 -113 315 -101 488 29 58 44 89 90 113 166
19 61 53 106 79 106 24 0 16 -100 -19 -225 -47 -170 -33 -230 110 -477 94
-162 156 -238 194 -238 39 0 102 77 194 238 146 253 157 304 107 494 -35 131
-40 208 -16 208 26 0 60 -45 79 -107 30 -96 93 -166 199 -219 152 -78 314 -67
402 25 38 40 28 58 -44 81 -97 32 -126 80 -178 289 -38 157 -72 231 -126 275
-35 28 -45 31 -110 31 -51 0 -101 -9 -172 -30 -99 -30 -102 -30 -340 -30 -235
1 -242 1 -330 29 -112 35 -208 43 -250 21z"/>
</g>
</svg>
