<?xml version="1.0" standalone="no"?>
<!DOCTYPE svg PUBLIC "-//W3C//DTD SVG 20010904//EN"
 "http://www.w3.org/TR/2001/REC-SVG-20010904/DTD/svg10.dtd">
<svg version="1.0" xmlns="http://www.w3.org/2000/svg"
 width="1244.000000pt" height="1280.000000pt" viewBox="0 0 1244.000000 1280.000000"
 preserveAspectRatio="xMidYMid meet">
<metadata>
Created by potrace 1.15, written by Peter Selinger 2001-2017
</metadata>
<g transform="translate(0.000000,1280.000000) scale(0.100000,-0.100000)"
fill="#000000" stroke="none">
<path d="M6176 12754 c-9 -67 -55 -146 -152 -259 -150 -175 -178 -266 -130
-419 27 -86 32 -140 17 -165 -6 -9 -13 1 -25 36 -68 205 -415 315 -654 208
-67 -30 -115 -72 -91 -79 156 -46 257 -112 336 -220 112 -152 172 -341 210
-666 8 -74 20 -153 25 -174 12 -50 54 -91 145 -144 70 -41 103 -73 103 -99 0
-20 -12 -16 -123 37 -93 44 -211 80 -224 67 -2 -3 7 -43 21 -88 13 -46 41
-140 61 -209 54 -186 99 -258 202 -325 164 -107 186 -143 207 -346 8 -78 23
-156 35 -188 23 -61 61 -121 77 -121 15 0 67 77 88 130 10 25 24 104 32 175 8
72 19 145 25 163 16 50 63 97 160 163 130 87 154 126 245 404 34 105 65 198
69 208 6 15 0 17 -52 17 -73 0 -145 -21 -243 -70 -41 -20 -86 -41 -100 -45
-22 -7 -24 -6 -11 9 8 9 60 46 115 83 180 117 189 132 211 335 43 400 104 580
241 715 52 51 77 67 148 94 73 27 174 91 176 110 0 11 -134 67 -188 78 -179
37 -393 -31 -532 -168 -37 -36 -81 -91 -98 -121 l-32 -55 0 44 c0 24 12 86 26
139 50 183 29 275 -115 510 -62 101 -111 214 -111 257 0 23 -4 25 -44 25 l-43
0 -7 -46z"/>
<path d="M5156 11495 c-15 -30 -71 -103 -125 -163 -53 -60 -109 -133 -125
-163 -16 -30 -30 -56 -32 -58 -2 -2 -27 18 -56 44 -95 86 -231 135 -371 135
-206 -1 -386 -102 -461 -259 -29 -61 -31 -74 -31 -177 0 -107 1 -112 38 -186
26 -54 54 -92 96 -131 53 -49 168 -125 175 -116 1 2 13 29 26 59 76 182 211
263 384 231 184 -34 282 -156 401 -501 99 -286 190 -427 317 -491 32 -16 58
-25 58 -20 0 6 -5 13 -11 17 -6 3 -29 34 -50 67 -72 112 -99 247 -80 406 12
98 21 139 99 441 62 239 78 366 63 482 -15 108 -44 167 -134 264 -39 44 -90
101 -112 126 l-40 48 -29 -55z"/>
<path d="M7216 11502 c-12 -28 -49 -78 -92 -123 -83 -87 -110 -135 -130 -228
-29 -138 -17 -248 66 -581 32 -129 63 -262 69 -295 39 -228 10 -392 -95 -529
l-35 -47 28 7 c98 24 185 108 255 249 14 28 56 133 93 235 93 256 135 340 210
415 74 76 142 105 245 105 173 0 238 -45 324 -222 l53 -109 64 43 c161 108
239 293 205 483 -53 304 -328 458 -641 359 -38 -11 -74 -34 -114 -69 -65 -58
-125 -105 -134 -105 -3 0 -17 25 -31 55 -13 30 -38 74 -55 99 -24 34 -173 206
-255 293 -8 9 -16 1 -30 -35z"/>
<path d="M6892 10693 c-11 -21 -43 -94 -72 -163 -28 -69 -70 -162 -91 -206
l-40 -82 -63 -4 c-90 -5 -99 -16 -94 -103 3 -53 13 -90 41 -153 28 -62 37 -96
37 -137 0 -51 -2 -54 -37 -77 -31 -19 -52 -23 -110 -23 -40 0 -73 -2 -73 -5 0
-3 20 -30 44 -62 34 -42 61 -64 110 -88 60 -30 72 -32 133 -28 94 7 154 38
239 122 78 79 122 149 161 258 21 59 27 97 30 198 5 120 4 130 -25 215 -17 50
-62 155 -100 233 l-71 144 -19 -39z"/>
<path d="M5477 10648 c-139 -295 -164 -636 -62 -845 77 -156 203 -233 386
-233 88 0 151 19 193 58 26 25 56 78 56 100 0 5 -28 12 -63 14 -80 7 -122 28
-136 70 -13 37 -9 69 29 203 40 139 46 188 26 204 -8 7 -48 16 -88 20 l-72 6
-51 135 c-58 153 -125 287 -160 320 l-23 22 -35 -74z"/>
<path d="M2140 10439 c-158 -14 -288 -72 -405 -181 -91 -84 -131 -138 -185
-247 -119 -239 -125 -533 -15 -765 96 -203 258 -339 465 -390 73 -18 259 -39
490 -56 172 -13 279 -31 366 -60 31 -11 59 -18 61 -16 8 8 -124 106 -181 134
-34 16 -122 49 -196 72 -74 23 -178 55 -230 71 -270 84 -380 195 -380 382 0
87 17 127 90 217 70 86 77 103 56 134 -37 57 -144 84 -262 66 -42 -6 -78 -9
-82 -6 -11 12 19 130 50 194 36 76 130 175 204 214 138 74 320 76 456 7 64
-33 143 -113 169 -172 16 -38 23 -71 23 -122 0 -82 -18 -123 -66 -153 -48 -30
-84 -72 -98 -115 -7 -21 -10 -41 -7 -43 3 -3 29 -8 60 -11 156 -16 247 99 247
313 0 165 -54 309 -150 397 -119 111 -274 155 -480 136z"/>
<path d="M10135 10430 c-78 -11 -165 -41 -225 -80 -61 -39 -152 -134 -179
-189 -56 -109 -76 -288 -46 -404 26 -101 77 -157 156 -172 36 -7 114 8 123 24
13 20 -19 71 -74 119 -52 46 -60 58 -70 109 -10 47 -9 67 4 122 77 313 504
378 755 116 74 -77 121 -169 128 -255 3 -33 2 -60 -2 -60 -4 0 -32 7 -62 16
-34 10 -77 14 -109 12 -63 -5 -143 -44 -163 -80 -19 -33 -5 -68 65 -161 61
-80 80 -145 70 -240 -8 -77 -35 -136 -85 -184 -76 -75 -165 -111 -491 -198
-178 -47 -280 -97 -349 -170 -29 -31 -51 -58 -49 -60 2 -2 51 13 108 34 143
53 181 59 445 71 233 11 318 22 435 59 274 86 469 372 487 712 9 167 -24 299
-109 443 -49 83 -169 212 -255 272 -153 110 -349 165 -508 144z"/>
<path d="M3930 10030 c-136 -26 -209 -155 -176 -310 8 -36 13 -66 12 -67 -1
-1 -22 5 -46 13 -55 20 -197 14 -252 -9 -34 -14 -38 -20 -38 -52 0 -21 -7 -62
-16 -92 -10 -33 -14 -71 -10 -92 5 -31 0 -44 -30 -86 -53 -75 -79 -170 -79
-290 1 -114 18 -185 64 -257 56 -87 166 -144 199 -102 14 19 13 65 -4 229 -6
58 -5 62 35 122 179 267 436 354 686 234 95 -46 159 -94 314 -239 167 -156
225 -200 321 -246 81 -38 90 -40 203 -44 64 -3 117 -1 117 4 0 5 -28 24 -63
41 -141 74 -296 223 -375 362 -46 83 -66 158 -87 322 -25 206 -44 294 -75 342
-33 52 -110 99 -226 139 -104 36 -123 31 -149 -36 -19 -50 -30 -57 -40 -27
-10 32 -84 102 -128 121 -52 22 -111 30 -157 20z"/>
<path d="M8430 10031 c-62 -19 -121 -64 -183 -140 -15 -18 -29 -32 -30 -30 -1
2 -12 25 -25 52 -29 62 -55 74 -124 58 -73 -16 -153 -64 -188 -112 -45 -62
-67 -134 -100 -317 -63 -360 -122 -464 -390 -689 -74 -63 -137 -119 -139 -125
-6 -18 157 -4 222 20 86 31 205 115 362 258 163 147 234 200 333 248 150 71
295 70 447 -3 127 -62 213 -157 255 -280 30 -91 25 -187 -15 -283 -6 -16 -1
-18 39 -18 57 0 127 32 163 74 14 17 38 56 52 86 24 51 26 65 26 200 -1 159
-11 203 -76 304 -25 41 -31 61 -35 130 -10 175 -5 158 -60 185 -61 30 -186 34
-248 8 l-38 -17 6 23 c15 48 18 156 6 206 -30 127 -144 197 -260 162z"/>
<path d="M4730 9907 c0 -2 11 -53 24 -113 46 -208 120 -379 206 -477 l42 -47
-76 0 c-44 0 -78 -5 -82 -11 -3 -6 14 -52 39 -103 98 -193 273 -345 485 -419
79 -28 99 -31 217 -31 107 -1 144 3 210 22 212 61 325 172 325 317 0 34 -5 76
-11 94 -13 38 -42 41 -108 11 -65 -30 -76 -26 -116 35 -49 73 -117 133 -263
233 -66 46 -141 102 -166 124 -66 57 -88 47 -99 -47 -3 -26 -4 -27 -11 -10
-70 176 -175 259 -471 374 -124 49 -145 55 -145 48z"/>
<path d="M7590 9866 c-217 -87 -354 -178 -450 -298 l-45 -57 -13 24 c-12 24
-41 45 -61 45 -6 0 -26 -24 -45 -53 -43 -66 -49 -72 -113 -87 -73 -17 -134
-60 -195 -138 -63 -82 -114 -137 -150 -163 l-27 -20 -50 26 c-65 34 -92 30
-108 -15 -20 -59 -16 -147 9 -198 44 -88 158 -160 319 -203 123 -33 336 -33
429 0 157 55 316 187 424 352 53 83 101 178 93 186 -3 2 -24 -1 -48 -6 -111
-26 -124 -10 -60 70 86 106 157 272 196 459 9 41 18 85 21 98 6 29 -2 28 -126
-22z"/>
<path d="M6185 9561 c-94 -23 -138 -75 -143 -171 -3 -58 0 -70 26 -111 39 -60
86 -83 161 -77 71 5 111 32 141 93 39 81 26 178 -32 233 -40 36 -92 48 -153
33z"/>
<path d="M1445 8887 c-139 -47 -244 -143 -325 -297 -56 -109 -91 -235 -97
-357 l-6 -103 54 16 c133 39 240 131 341 296 56 91 63 99 72 79 13 -30 65 -60
118 -67 l45 -6 17 67 c34 134 87 205 177 235 l53 18 -63 41 c-35 22 -88 50
-120 62 -70 27 -208 35 -266 16z"/>
<path d="M10790 8862 c-61 -20 -201 -91 -240 -122 l-25 -20 42 0 c53 0 91 -14
126 -48 37 -35 49 -59 82 -160 l26 -82 43 0 c50 0 93 35 103 82 3 15 9 28 12
28 4 0 21 -28 37 -62 44 -94 115 -198 168 -246 58 -53 156 -101 224 -109 l50
-6 -33 139 c-65 269 -120 396 -217 500 -77 82 -152 116 -263 121 -58 2 -95 -2
-135 -15z"/>
<path d="M6153 8812 c-91 -137 -123 -243 -130 -433 -6 -167 4 -285 53 -631 58
-414 64 -492 63 -863 0 -295 -2 -334 -13 -298 -47 148 -174 224 -221 132 -8
-15 -15 -34 -15 -41 0 -16 203 -228 218 -228 6 0 15 12 21 28 7 19 10 -75 9
-333 0 -349 0 -362 21 -403 18 -35 56 -71 66 -60 11 13 45 91 55 127 8 31 11
222 10 675 -1 696 3 758 65 1263 19 155 42 361 51 459 25 272 5 398 -94 571
-47 82 -47 83 -87 83 -37 0 -43 -4 -72 -48z"/>
<path d="M4430 8779 c-489 -50 -920 -311 -1084 -660 -54 -112 -69 -186 -70
-324 0 -110 2 -125 28 -182 45 -99 169 -202 244 -203 68 0 107 57 105 152 -1
71 -6 78 -50 78 -28 0 -42 -8 -68 -36 -45 -49 -66 -41 -106 41 -26 54 -31 76
-32 137 0 110 38 183 112 215 18 8 35 12 37 10 2 -2 -5 -21 -15 -43 -26 -55
-34 -114 -18 -144 8 -15 34 -34 67 -48 107 -44 247 -15 331 69 59 59 79 127
89 315 11 188 29 252 91 319 70 76 171 115 337 131 41 4 200 1 355 -6 218 -10
303 -10 376 -1 52 7 100 15 108 19 28 16 -178 98 -328 130 -177 39 -335 48
-509 31z"/>
<path d="M7615 8755 c-229 -31 -363 -86 -388 -157 -12 -34 45 -34 393 -2 297
27 475 15 594 -39 128 -59 169 -132 226 -400 42 -198 58 -250 102 -314 58 -86
159 -117 293 -90 56 12 85 23 98 38 21 26 22 84 2 132 -27 64 -16 74 35 31 93
-79 104 -271 20 -356 l-29 -28 -37 25 c-27 18 -50 25 -86 25 -47 0 -50 -1 -64
-37 -32 -75 8 -149 93 -172 79 -22 127 -7 189 60 84 92 130 238 120 379 -8
110 -26 176 -76 278 -112 225 -339 409 -652 526 -262 98 -581 136 -833 101z"/>
<path d="M2430 8714 c-187 -40 -319 -167 -350 -334 -26 -144 54 -287 204 -360
179 -88 348 -37 370 114 8 50 2 97 -20 167 -18 56 -50 74 -134 74 -91 0 -184
-72 -205 -157 -4 -16 -11 -28 -15 -28 -18 0 -60 105 -60 149 1 88 64 183 154
228 62 31 197 42 289 23 204 -42 380 -219 442 -445 23 -82 32 -360 15 -463
-25 -154 -92 -316 -230 -557 -32 -55 -72 -128 -89 -163 -29 -57 -30 -62 -11
-52 11 6 52 41 90 77 201 189 327 467 360 796 35 335 -83 670 -288 820 -146
108 -344 150 -522 111z"/>
<path d="M9759 8715 c-127 -31 -253 -107 -350 -213 -101 -108 -159 -213 -195
-347 -26 -98 -27 -404 -2 -521 56 -257 165 -458 356 -655 l103 -108 -15 -30
c-14 -26 -43 -51 -60 -51 -2 0 -12 22 -21 49 -97 293 -566 431 -955 280 -151
-58 -277 -185 -317 -317 -22 -75 -21 -209 1 -287 29 -99 85 -194 156 -266 71
-73 138 -111 232 -135 168 -43 359 50 402 197 20 65 20 73 1 136 -31 103 -147
193 -249 193 -63 0 -110 -23 -150 -73 -33 -42 -37 -78 -21 -181 8 -48 8 -48
-16 -41 -89 28 -194 117 -225 191 -41 97 -38 219 8 312 95 197 393 264 737
166 153 -44 313 -133 371 -207 19 -24 20 -28 5 -33 -32 -13 -125 17 -189 60
l-64 43 -6 -28 c-6 -34 7 -113 28 -163 37 -89 150 -171 269 -196 111 -22 254
16 319 86 58 63 73 110 73 224 -1 85 -5 116 -23 161 -44 110 -153 199 -243
199 l-37 0 6 -109 c2 -60 1 -122 -2 -137 -7 -27 -12 -21 -64 81 -32 61 -89
164 -129 230 -70 118 -102 187 -128 275 -49 165 -66 513 -32 640 37 137 113
239 242 324 104 70 194 99 317 104 99 4 111 2 165 -22 32 -15 71 -39 87 -54
45 -42 76 -118 76 -185 0 -61 -9 -87 -43 -124 -23 -26 -37 -29 -37 -10 0 40
-35 124 -64 153 -87 87 -263 38 -296 -82 -27 -96 34 -233 125 -282 21 -11 57
-16 120 -17 108 0 148 17 218 95 103 115 123 313 46 468 -80 162 -322 257
-530 207z"/>
<path d="M7255 8550 c-552 -87 -924 -584 -902 -1205 5 -135 34 -324 47 -308 4
5 28 112 54 238 76 365 127 501 231 614 65 70 129 105 234 126 130 28 225 -2
432 -135 134 -86 239 -137 323 -155 58 -12 62 -12 80 9 15 17 17 31 12 77 l-5
57 62 -65 c34 -35 91 -84 127 -108 75 -49 223 -125 244 -125 21 0 40 101 32
179 -3 35 -26 123 -51 196 -25 72 -45 136 -45 142 0 6 21 13 46 16 31 3 55 13
70 29 l24 24 -87 90 c-149 151 -286 235 -461 281 -78 20 -127 25 -252 28 -85
2 -182 0 -215 -5z"/>
<path d="M4815 8539 c-210 -30 -401 -124 -530 -260 -86 -91 -112 -129 -94
-140 8 -5 17 -9 21 -9 4 0 32 -9 62 -20 l54 -21 -35 -87 c-67 -167 -85 -274
-62 -369 12 -45 12 -45 48 -39 81 13 204 91 379 242 l42 37 0 -82 c0 -92 -6
-87 93 -66 85 18 155 55 282 150 55 41 125 88 155 104 174 92 391 56 520 -86
100 -110 157 -245 245 -583 63 -242 86 -323 90 -318 10 10 -16 658 -30 745
-40 250 -148 433 -335 573 -249 184 -600 273 -905 229z"/>
<path d="M1690 8144 c-82 -22 -132 -49 -181 -99 -77 -78 -137 -193 -175 -335
-22 -79 -29 -256 -14 -332 14 -72 62 -184 111 -255 47 -70 174 -198 329 -333
158 -138 194 -174 249 -254 l41 -59 1 34 c3 88 3 87 -95 272 -55 106 -59 147
-21 282 43 154 31 284 -37 402 -16 29 -77 103 -135 164 -128 136 -143 159
-143 223 0 44 4 53 43 91 48 49 107 70 165 59 29 -5 53 -23 111 -81 65 -67
134 -113 148 -99 3 3 8 34 10 70 7 81 -14 142 -65 192 -68 66 -218 91 -342 58z"/>
<path d="M10543 8132 c-129 -46 -194 -132 -192 -252 0 -25 3 -53 7 -62 7 -16
10 -16 37 -2 17 8 58 44 93 80 96 99 148 114 240 68 67 -33 102 -82 102 -142
0 -62 -17 -89 -145 -222 -147 -155 -187 -228 -193 -359 -4 -71 0 -104 22 -183
41 -150 34 -192 -52 -320 -27 -40 -59 -92 -71 -115 -23 -46 -28 -121 -10 -155
11 -20 13 -18 35 29 33 68 100 135 279 280 219 176 292 252 359 374 158 289
64 762 -185 928 -72 48 -111 61 -204 67 -52 3 -83 0 -122 -14z"/>
<path d="M451 8035 c-128 -29 -286 -123 -358 -213 -16 -20 -43 -59 -59 -87
-28 -49 -29 -53 -29 -190 1 -142 7 -182 47 -285 97 -248 336 -407 643 -426
137 -9 395 37 395 70 0 9 -29 13 -122 13 -233 0 -468 71 -630 189 -69 51 -153
146 -181 207 -42 88 -53 169 -34 261 9 43 28 98 42 122 71 121 275 192 403
139 23 -9 42 -18 42 -20 0 -1 -20 -22 -44 -46 -125 -126 -54 -330 126 -364 94
-18 204 39 250 129 49 96 28 273 -45 368 -89 116 -275 172 -446 133z"/>
<path d="M11746 7999 c-64 -16 -155 -70 -196 -117 -106 -120 -101 -346 10
-446 81 -73 221 -75 298 -3 86 80 92 234 12 318 -37 39 -37 40 -16 52 13 7 61
12 121 12 90 0 105 -3 153 -28 118 -62 171 -148 179 -290 7 -111 -15 -200 -68
-280 -128 -194 -449 -327 -831 -344 -71 -3 -128 -9 -128 -13 0 -4 48 -18 108
-31 139 -30 368 -33 480 -6 407 98 620 385 562 757 -27 173 -166 323 -368 398
-52 19 -90 25 -172 28 -58 2 -122 -1 -144 -7z"/>
<path d="M5410 7904 c-14 -3 -40 -7 -57 -10 l-33 -5 0 -67 c0 -49 6 -80 24
-117 44 -96 119 -145 400 -266 55 -24 122 -58 149 -76 27 -18 51 -33 52 -33 2
0 -3 24 -12 53 -73 250 -152 381 -282 470 -47 32 -181 60 -241 51z"/>
<path d="M6909 7896 c-129 -36 -232 -131 -304 -279 -54 -112 -93 -257 -69
-257 3 0 24 11 47 24 23 14 100 47 170 76 174 69 221 94 279 148 59 55 92 116
107 197 16 83 16 82 -39 94 -65 14 -132 13 -191 -3z"/>
<path d="M5226 7392 c-3 -75 -12 -188 -19 -251 l-12 -113 -83 172 c-71 147
-92 181 -140 230 -39 39 -73 62 -106 73 -78 27 -211 20 -223 -10 -9 -23 15
-87 47 -128 17 -21 29 -40 27 -41 -2 -2 -20 1 -41 7 -21 6 -84 12 -140 13 -56
1 -108 6 -115 10 -7 5 -27 31 -46 60 -37 58 -60 81 -92 90 -29 9 -38 -21 -38
-124 0 -97 29 -158 126 -266 l70 -79 -73 -6 c-111 -9 -112 -10 -105 -87 12
-121 80 -227 181 -279 100 -51 130 -57 317 -57 133 -1 180 -4 192 -15 29 -23
19 -30 -38 -24 -156 16 -299 -79 -414 -274 l-30 -53 32 -13 c193 -81 333 -117
454 -117 51 0 93 -3 93 -6 0 -3 -9 -17 -20 -31 -11 -14 -20 -39 -20 -54 l0
-29 95 0 c186 0 332 49 429 144 85 83 136 201 136 319 0 54 1 57 25 57 14 0
25 -5 25 -11 0 -5 28 -42 62 -82 138 -161 214 -316 228 -469 9 -98 32 -146 76
-167 15 -6 29 -9 32 -7 8 9 -37 266 -64 368 -41 151 -136 306 -226 365 -34 23
-52 28 -100 27 l-58 -1 0 33 c0 29 5 36 39 54 58 29 107 85 133 149 32 82 32
272 0 386 -32 111 -53 151 -77 147 -20 -3 -56 -37 -85 -79 -8 -12 -24 -23 -34
-25 -15 -2 -21 6 -31 47 -14 64 -61 150 -98 181 -59 50 -144 84 -243 98 l-41
6 -7 -138z"/>
<path d="M7585 7500 c-94 -37 -135 -89 -245 -307 -44 -90 -84 -163 -88 -163
-4 0 -6 35 -4 78 2 43 -4 128 -12 190 -9 62 -16 136 -16 164 l0 51 -77 -5
c-152 -9 -243 -77 -304 -228 -18 -44 -39 -80 -46 -80 -6 0 -20 12 -30 26 -10
14 -30 40 -46 57 -27 32 -27 32 -43 12 -109 -139 -130 -407 -43 -577 24 -48
76 -106 113 -129 29 -17 29 -18 30 -126 2 -129 22 -191 94 -286 118 -154 325
-228 514 -182 40 9 77 20 81 22 5 3 -10 25 -34 49 l-42 43 89 -6 c111 -6 181
9 359 79 71 29 132 53 133 54 11 7 -24 77 -66 131 -57 75 -124 129 -217 176
l-69 35 49 6 c127 15 235 35 286 55 154 59 233 159 255 322 7 54 6 55 -118 65
l-77 7 59 65 c147 160 179 266 113 380 -13 23 -28 42 -32 42 -5 0 -11 -18 -15
-39 -7 -47 -51 -94 -103 -112 -53 -17 -293 -57 -293 -48 0 4 5 11 10 14 15 9
67 116 71 145 3 20 -1 26 -26 31 -62 14 -159 8 -210 -11z"/>
<path d="M3375 7190 c-230 -36 -423 -155 -504 -310 -19 -36 -36 -67 -37 -69
-7 -8 -46 35 -64 69 -34 68 -35 131 -3 274 l6 29 -53 -7 c-104 -14 -197 -84
-244 -185 -18 -39 -21 -65 -21 -161 0 -103 3 -121 26 -170 83 -178 251 -233
434 -144 63 31 152 119 184 182 26 52 44 137 35 175 l-6 28 -34 -31 c-59 -51
-127 -80 -189 -80 -30 0 -55 3 -55 8 0 12 168 116 269 166 456 229 839 132
902 -228 28 -166 -53 -316 -197 -361 -30 -9 -57 -16 -59 -14 -2 2 2 25 7 51
21 92 -36 188 -129 216 -88 26 -200 6 -245 -44 -54 -61 -69 -201 -31 -285 27
-61 84 -116 152 -148 49 -23 69 -26 156 -26 94 0 105 2 170 34 214 105 358
389 312 616 -21 102 -48 155 -119 230 -70 75 -177 135 -295 165 -91 24 -279
33 -368 20z"/>
<path d="M1165 6829 c-158 -26 -318 -91 -675 -271 -135 -68 -290 -139 -345
-158 -55 -18 -101 -34 -103 -35 -5 -4 55 -144 81 -187 52 -89 139 -148 218
-148 52 0 157 41 230 89 41 26 130 90 199 141 203 150 337 202 530 203 254 2
410 -87 765 -434 227 -221 321 -303 412 -358 48 -30 166 -81 185 -81 5 0 -17
23 -48 51 -128 116 -203 216 -388 519 -142 231 -184 288 -285 393 -140 145
-299 237 -466 272 -79 16 -227 18 -310 4z"/>
<path d="M10976 6804 c-164 -37 -301 -111 -428 -232 -101 -97 -162 -172 -296
-368 -60 -89 -168 -240 -239 -335 -71 -96 -148 -202 -172 -237 l-42 -63 73 37
c141 71 246 159 522 437 222 223 353 320 516 378 56 20 85 23 205 23 118 1
152 -3 220 -23 122 -35 168 -65 308 -198 105 -101 144 -130 210 -163 135 -66
229 -74 332 -26 86 39 153 136 174 251 13 67 11 70 -56 80 -120 18 -247 78
-461 217 -293 191 -393 228 -642 234 -115 3 -173 0 -224 -12z"/>
<path d="M6419 6737 c-78 -52 -122 -184 -85 -255 24 -46 34 -47 52 -3 9 24 39
59 75 91 56 49 99 111 99 144 0 22 -40 46 -76 46 -17 0 -46 -10 -65 -23z"/>
<path d="M6675 6541 c-157 -73 -277 -293 -345 -633 -26 -131 -26 -141 3 -133
12 4 35 19 50 34 25 25 30 40 42 132 18 144 47 210 191 426 107 160 134 205
122 203 -2 -1 -30 -13 -63 -29z"/>
<path d="M2550 6475 c-33 -40 -37 -344 -5 -495 74 -356 292 -628 634 -792 57
-27 91 -38 107 -34 39 10 28 32 -33 66 -231 130 -396 359 -476 658 -30 114
-31 123 -31 343 l-1 227 -32 -5 c-21 -4 -49 3 -86 21 -65 31 -61 30 -77 11z"/>
<path d="M9839 6473 c-21 -24 -73 -43 -120 -43 l-42 0 7 -47 c26 -188 15 -384
-30 -542 -30 -108 -108 -266 -173 -351 -74 -99 -217 -230 -330 -306 -56 -37
-100 -69 -98 -70 8 -9 200 59 271 96 403 207 624 655 567 1148 -16 138 -22
152 -52 115z"/>
<path d="M762 6178 c-21 -35 -48 -71 -59 -80 -31 -28 -102 -55 -193 -73 -108
-22 -167 -52 -219 -111 -58 -66 -79 -142 -92 -333 -10 -156 -31 -321 -44 -353
-5 -13 0 -19 22 -25 38 -10 172 -10 203 0 24 7 27 5 43 -40 27 -76 113 -202
185 -271 188 -182 491 -215 678 -74 67 52 121 126 144 201 25 80 25 132 0 213
-27 89 -120 216 -120 165 0 -34 -61 -107 -112 -134 -49 -26 -62 -28 -158 -27
-83 0 -116 5 -160 22 -111 44 -180 114 -215 221 -14 44 -17 75 -12 175 6 138
27 225 106 442 28 76 49 139 47 141 -2 2 -22 -24 -44 -59z"/>
<path d="M11664 6043 c86 -172 126 -326 126 -483 0 -72 -2 -80 -38 -136 -84
-129 -231 -214 -369 -214 -88 0 -127 15 -192 75 -32 31 -75 62 -95 70 l-36 15
-15 -37 c-41 -97 -50 -140 -50 -233 0 -117 24 -177 95 -244 88 -82 186 -116
341 -116 118 0 223 25 320 76 149 78 234 190 264 346 5 25 7 26 37 17 18 -5
73 -9 121 -9 l88 0 -5 43 c-3 23 -11 103 -16 177 -15 183 -36 308 -66 399 -38
113 -56 137 -117 157 -94 30 -246 93 -337 139 -49 25 -92 45 -95 45 -3 0 15
-39 39 -87z"/>
<path d="M3461 5989 c-75 -50 -106 -86 -144 -168 -27 -57 -31 -75 -30 -155 0
-72 6 -108 27 -171 68 -202 236 -395 413 -476 l62 -29 -16 -37 c-35 -83 -13
-196 49 -260 58 -60 147 -41 314 67 52 34 97 60 98 58 2 -1 13 -25 24 -51 16
-37 30 -51 58 -63 36 -15 39 -15 110 20 162 81 225 202 314 606 57 260 113
394 197 473 16 15 58 43 94 63 l64 35 -70 -6 c-133 -13 -216 -61 -420 -239
-261 -230 -367 -286 -537 -286 -178 0 -347 81 -444 213 -65 87 -80 148 -64
259 11 78 11 92 -4 133 -10 25 -21 47 -26 50 -4 3 -35 -13 -69 -36z"/>
<path d="M8854 5995 c16 -42 25 -153 17 -210 -31 -212 -187 -368 -413 -413
-194 -38 -335 24 -615 271 -229 201 -325 251 -449 232 l-47 -7 55 -22 c155
-63 220 -176 292 -507 56 -254 74 -318 118 -408 62 -129 148 -203 269 -230 56
-13 84 2 104 53 28 69 31 70 93 19 66 -54 173 -107 248 -124 65 -15 92 -1 126
64 18 34 22 59 23 132 0 50 -4 106 -8 125 l-8 36 53 17 c164 52 344 247 415
449 21 60 26 92 27 178 1 95 -2 110 -27 161 -44 91 -145 169 -251 195 -25 6
-28 5 -22 -11z"/>
<path d="M5409 5920 c-227 -28 -431 -140 -525 -286 -39 -61 -74 -160 -74 -209
l0 -35 80 0 c57 0 80 -4 80 -12 0 -38 -32 -279 -41 -313 -15 -54 -36 -94 -68
-129 l-26 -28 60 7 c151 18 249 82 391 258 l31 38 7 -40 c7 -48 46 -97 68 -88
9 3 28 29 44 57 25 46 35 54 119 95 51 25 130 76 178 115 48 38 126 101 174
140 47 38 119 87 160 107 40 21 73 41 73 45 0 3 -18 29 -39 56 -46 58 -155
133 -243 168 -123 48 -314 71 -449 54z"/>
<path d="M6760 5916 c-141 -26 -263 -82 -348 -160 -51 -46 -102 -113 -102
-132 0 -7 22 -20 49 -29 70 -23 151 -79 257 -176 50 -46 109 -97 131 -112 44
-31 148 -76 174 -77 20 0 41 -24 68 -77 41 -82 100 -96 114 -28 5 22 12 54 16
70 l7 30 23 -45 c32 -61 123 -154 193 -196 51 -31 203 -94 228 -94 5 0 0 19
-10 43 -41 92 -79 286 -80 400 l0 57 68 -2 67 -3 -2 69 c-4 195 -193 379 -458
447 -104 26 -293 33 -395 15z"/>
<path d="M2083 5611 c-131 -38 -242 -135 -280 -246 -27 -78 -23 -187 9 -257
48 -103 143 -177 238 -185 53 -5 122 26 154 70 19 26 19 28 3 45 -14 13 -36
17 -95 18 -126 2 -122 1 -138 39 -17 41 -17 78 -1 124 l12 34 75 1 c81 2 124
18 211 82 57 42 126 74 159 74 61 0 136 -49 380 -249 132 -109 316 -202 491
-250 83 -23 269 -41 325 -32 l36 6 -41 47 c-48 54 -74 64 -195 73 -192 15
-336 90 -656 341 -193 152 -272 207 -343 239 -109 48 -234 57 -344 26z"/>
<path d="M10091 5605 c-127 -36 -240 -108 -455 -292 -303 -259 -456 -333 -662
-320 -64 4 -84 2 -84 -8 0 -7 -24 -24 -53 -38 -55 -26 -85 -52 -73 -65 4 -4
51 -9 105 -10 172 -6 360 38 548 130 134 64 223 124 358 237 117 99 197 151
231 151 40 0 107 -30 198 -89 104 -66 162 -91 211 -91 24 0 37 -6 45 -19 14
-28 13 -128 -2 -138 -7 -4 -57 -10 -110 -13 -83 -5 -101 -9 -119 -27 -12 -12
-19 -28 -16 -36 9 -23 96 -60 153 -65 97 -8 205 63 255 166 31 64 38 200 15
270 -35 105 -130 199 -244 243 -75 28 -224 35 -301 14z"/>
<path d="M6126 5565 c-22 -7 -48 -22 -58 -32 -17 -18 -17 -22 -4 -55 26 -60
35 -118 56 -339 11 -116 27 -241 35 -277 16 -68 64 -173 81 -179 12 -4 37 141
64 382 24 209 44 338 65 415 18 65 12 72 -67 89 -66 15 -125 13 -172 -4z"/>
<path d="M5695 5207 c-231 -86 -376 -311 -424 -661 -14 -98 -14 -311 -1 -394
16 -96 56 -211 94 -272 36 -58 40 -57 49 12 10 66 40 111 140 208 109 105 136
142 153 210 l11 45 64 5 64 5 3 49 c2 27 -7 115 -19 195 -37 251 -29 352 33
395 26 19 123 21 181 5 22 -6 41 -8 44 -5 12 12 -60 137 -97 169 -72 62 -185
74 -295 34z"/>
<path d="M6550 5219 c-24 -5 -65 -21 -90 -37 -60 -37 -89 -91 -94 -176 -2 -36
-2 -66 0 -66 2 0 11 15 20 33 23 44 29 47 107 47 80 0 109 -15 138 -71 27 -54
24 -137 -10 -287 -16 -70 -33 -159 -36 -199 -7 -70 -7 -73 16 -82 13 -5 51
-13 84 -18 l60 -8 7 -57 c12 -92 23 -107 193 -252 61 -53 94 -110 95 -163 0
-18 4 -33 8 -33 13 0 71 103 93 166 101 288 42 727 -135 992 -82 124 -161 181
-285 208 -74 15 -105 16 -171 3z"/>
<path d="M7192 4893 c77 -256 112 -521 112 -853 0 -195 -4 -261 -23 -388 -28
-186 -26 -297 9 -386 19 -49 43 -81 135 -175 92 -95 115 -125 129 -168 18 -55
54 -93 88 -93 48 0 113 78 137 165 6 22 18 100 26 174 8 73 16 135 18 137 2 2
26 -14 54 -35 101 -75 209 -111 338 -111 207 0 379 100 462 268 38 76 38 77
38 201 0 118 -2 129 -28 178 -28 54 -78 96 -128 108 -26 6 -28 4 -49 -62 -38
-120 -97 -194 -185 -235 -41 -19 -67 -23 -145 -23 -82 0 -103 4 -152 27 -79
37 -122 71 -174 140 -88 114 -140 227 -269 588 -116 324 -190 467 -289 558
-36 33 -113 82 -129 82 -2 0 9 -44 25 -97z"/>
<path d="M5167 4940 c-101 -89 -163 -211 -302 -590 -131 -357 -184 -469 -279
-589 -85 -107 -195 -163 -321 -163 -88 -1 -140 13 -202 55 -41 27 -55 46 -93
124 -25 51 -57 105 -72 120 l-28 27 -44 -43 c-187 -183 -108 -570 141 -693 58
-28 79 -33 164 -36 125 -5 195 15 375 107 l130 67 1 -131 c1 -172 21 -241 96
-321 l53 -56 39 47 c21 26 84 96 139 155 160 170 212 278 223 460 3 58 -3 214
-17 404 -29 407 -25 663 13 807 14 52 42 128 62 169 31 61 35 77 26 97 -16 35
-51 29 -104 -17z"/>
<path d="M3600 4805 c-36 -8 -148 -18 -250 -24 -322 -20 -454 -43 -556 -101
l-52 -29 -53 34 c-75 46 -87 47 -110 5 -34 -62 -16 -167 35 -209 14 -12 12
-18 -20 -55 -51 -59 -85 -138 -144 -331 -65 -216 -97 -282 -168 -346 l-56 -51
60 7 c262 29 384 69 481 158 50 46 83 104 107 192 10 33 24 80 33 103 l16 44
15 -36 c12 -30 19 -36 44 -36 76 0 136 56 214 201 68 128 116 178 206 218 231
103 260 126 277 214 8 43 6 59 -8 56 -3 -1 -35 -7 -71 -14z"/>
<path d="M8729 4792 c29 -98 89 -154 255 -236 176 -87 201 -110 265 -243 58
-118 86 -155 144 -185 52 -26 78 -20 97 20 l16 33 13 -52 c8 -28 32 -88 54
-132 72 -144 194 -242 352 -282 64 -16 236 -19 270 -5 11 5 15 9 9 9 -7 1 -34
21 -61 45 -65 58 -99 130 -163 340 -54 179 -83 247 -133 310 -25 31 -28 41
-19 55 43 60 56 166 26 209 -13 19 -63 52 -79 52 -3 0 -5 -11 -5 -24 0 -55
-60 -66 -139 -26 -112 57 -211 73 -617 100 -88 6 -187 17 -220 25 -77 19 -74
19 -65 -13z"/>
<path d="M6170 4621 c-16 -39 -49 -69 -159 -141 -149 -98 -174 -135 -217 -318
-28 -117 -52 -179 -89 -228 l-25 -32 31 -26 c16 -14 48 -30 70 -36 50 -14 118
4 232 61 71 36 81 39 96 25 29 -26 64 -28 125 -6 90 31 117 27 246 -35 147
-71 204 -72 264 -6 19 21 19 22 -4 79 -46 115 -139 299 -190 377 -65 100 -195
228 -280 278 -35 20 -70 37 -76 37 -6 0 -17 -13 -24 -29z"/>
<path d="M6145 3817 c-115 -39 -156 -88 -163 -200 -5 -88 9 -147 49 -191 88
-101 271 -81 378 41 101 114 70 274 -65 338 -48 23 -148 29 -199 12z"/>
<path d="M6048 3278 c-5 -87 -38 -149 -124 -235 -226 -228 -554 -222 -630 12
-9 27 -20 54 -24 58 -14 16 -95 -58 -123 -113 -92 -181 -25 -416 128 -444 24
-5 39 -15 49 -35 22 -41 91 -100 150 -127 192 -88 525 -18 693 144 l45 43 16
-23 c83 -123 266 -201 472 -202 182 -1 296 44 375 150 18 25 51 50 85 67 30
14 74 44 97 65 38 36 42 45 48 106 9 84 -7 172 -45 251 -32 66 -116 158 -124
134 -2 -8 -9 -32 -15 -54 -19 -74 -66 -131 -133 -165 -52 -26 -72 -30 -137
-30 -98 1 -149 13 -240 58 -141 69 -239 194 -248 317 l-5 60 -96 -3 c-84 -3
-145 4 -195 23 -12 5 -15 -6 -19 -57z"/>
<path d="M6142 2373 c-56 -87 -141 -277 -187 -416 -84 -256 -121 -495 -112
-732 6 -172 18 -225 116 -506 54 -153 64 -195 82 -330 29 -230 59 -312 132
-369 l25 -20 31 36 c46 57 79 159 112 358 25 145 46 226 105 408 86 265 104
355 104 531 0 289 -76 576 -249 942 -44 93 -63 123 -85 133 -39 18 -41 17 -74
-35z"/>
<path d="M6340 2375 c0 -3 16 -26 36 -52 72 -94 113 -202 198 -516 72 -265
108 -372 162 -484 108 -221 278 -322 476 -283 119 23 218 88 292 193 39 56 86
138 86 152 0 3 -17 5 -37 5 -72 0 -168 21 -230 51 -105 50 -168 130 -275 348
-162 333 -229 403 -478 500 -69 27 -149 58 -177 70 -29 11 -53 19 -53 16z"/>
<path d="M5975 2338 c-22 -11 -76 -33 -120 -48 -129 -44 -190 -77 -250 -137
-67 -67 -114 -143 -196 -323 -35 -74 -76 -157 -92 -185 -93 -160 -211 -234
-402 -251 -88 -8 -88 -3 -14 -109 69 -101 154 -179 236 -218 63 -29 76 -32
168 -32 87 0 107 4 157 27 73 34 137 93 189 175 70 112 108 215 195 528 95
345 142 462 221 554 l35 41 -44 0 c-24 -1 -61 -10 -83 -22z"/>
</g>
</svg>
