<?xml version="1.0" standalone="no"?>
<!DOCTYPE svg PUBLIC "-//W3C//DTD SVG 20010904//EN"
 "http://www.w3.org/TR/2001/REC-SVG-20010904/DTD/svg10.dtd">
<svg version="1.0" xmlns="http://www.w3.org/2000/svg"
 width="1135.000000pt" height="1280.000000pt" viewBox="0 0 1135.000000 1280.000000"
 preserveAspectRatio="xMidYMid meet">
<metadata>
Created by potrace 1.15, written by Peter Selinger 2001-2017
</metadata>
<g transform="translate(0.000000,1280.000000) scale(0.100000,-0.100000)"
fill="#000000" stroke="none">
<path d="M9885 12789 c-99 -10 -389 -61 -481 -85 -133 -34 -216 -87 -258 -164
-40 -73 -38 -119 9 -216 72 -149 196 -246 508 -393 78 -37 153 -71 166 -77 18
-8 -36 -10 -200 -10 -248 0 -394 -13 -574 -49 -216 -43 -416 -111 -473 -160
-23 -20 -25 -26 -16 -51 8 -26 14 -29 49 -28 23 1 82 19 137 43 110 47 289
100 446 133 155 32 450 32 602 -1 282 -60 598 -203 785 -354 171 -138 320
-333 375 -490 45 -127 36 -352 -20 -498 -59 -157 -295 -413 -567 -617 -192
-143 -337 -241 -570 -385 -164 -101 -226 -137 -237 -137 -2 0 -14 21 -27 48
-39 82 -156 186 -321 284 -160 95 -182 104 -185 73 -2 -14 13 -31 52 -58 104
-71 184 -211 226 -395 12 -51 20 -94 18 -95 -2 -2 -67 -39 -144 -82 -537 -301
-1138 -734 -1566 -1127 -100 -92 -309 -314 -424 -453 -123 -147 -364 -474
-508 -691 -78 -117 -145 -213 -149 -214 -4 0 -45 25 -92 55 -197 129 -459 246
-691 310 -602 166 -1167 211 -1614 129 -47 -9 -132 -17 -190 -19 -216 -5 -460
-80 -896 -272 -301 -132 -516 -250 -805 -443 -803 -534 -1305 -1021 -1843
-1786 -148 -212 -208 -307 -265 -420 -181 -361 -187 -648 -19 -870 26 -34 66
-77 90 -97 24 -19 70 -76 103 -126 32 -50 65 -91 72 -91 31 0 22 35 -32 116
l-57 86 12 113 c13 116 10 186 -22 555 -19 222 5 399 75 545 56 119 271 431
425 620 259 316 601 653 926 911 234 185 655 475 869 598 258 149 471 243 679
302 150 43 208 53 135 24 -52 -21 -243 -127 -337 -188 -264 -170 -418 -305
-584 -512 -262 -325 -415 -680 -434 -1000 -15 -263 59 -684 166 -945 111 -271
351 -597 675 -920 199 -198 368 -337 526 -433 138 -83 377 -202 408 -202 55 0
91 76 62 130 -6 11 -32 26 -58 34 -84 25 -164 72 -282 167 -63 50 -160 126
-215 167 -301 228 -640 579 -803 832 -120 184 -221 432 -269 659 -25 116 -27
145 -28 361 0 260 12 346 77 529 127 361 453 782 774 998 249 168 672 319
1116 398 315 55 730 42 1103 -35 457 -94 789 -241 1097 -483 16 -13 14 -21
-33 -108 -200 -373 -332 -743 -416 -1164 -26 -130 -28 -157 -28 -382 l0 -242
-27 87 c-67 216 -229 474 -401 639 -70 68 -103 90 -189 132 -153 73 -213 86
-398 85 -160 -1 -241 -14 -414 -66 -137 -42 -576 -293 -576 -330 0 -29 26 -22
120 33 114 65 247 122 352 150 72 20 109 23 273 23 214 1 283 -12 422 -81 231
-113 483 -445 594 -783 129 -395 130 -850 2 -1223 -116 -339 -237 -561 -406
-743 -78 -85 -121 -148 -133 -198 -4 -17 -62 -113 -129 -215 -159 -241 -377
-609 -452 -761 -117 -239 -131 -475 -56 -937 21 -128 44 -238 50 -244 24 -24
30 5 30 133 0 212 18 290 174 773 111 341 120 364 251 610 138 258 209 378
403 679 128 198 306 434 495 656 256 299 638 762 750 909 199 259 388 546 478
727 29 57 120 321 142 411 23 94 454 579 926 1043 286 281 425 386 659 501
166 80 231 100 350 106 115 6 146 -4 190 -61 28 -37 89 -67 187 -92 85 -22
239 -14 326 16 65 23 212 112 212 129 0 6 -21 27 -46 48 -30 25 -58 62 -81
108 -94 186 -181 300 -270 352 -110 64 -315 85 -443 44 -136 -43 -250 -135
-367 -295 -256 -350 -429 -540 -786 -866 -210 -192 -547 -549 -740 -785 -88
-107 -90 -109 -84 -70 43 254 -7 566 -124 785 -78 146 -269 363 -453 517 -50
42 -93 80 -94 85 -5 12 181 291 299 449 335 450 637 760 1057 1082 438 337
691 500 1182 763 91 49 167 90 170 92 19 8 -20 -318 -56 -468 -67 -284 -158
-480 -380 -816 -129 -197 -236 -328 -384 -474 -229 -226 -422 -365 -677 -490
-180 -89 -217 -116 -253 -187 -47 -94 -26 -144 68 -164 73 -15 141 0 208 45
71 49 321 274 469 423 456 458 637 709 906 1258 222 455 301 675 343 965 l7
45 226 125 c641 353 1007 590 1203 777 211 201 309 391 327 634 13 193 -49
400 -180 594 -54 80 -279 303 -397 394 -191 148 -395 246 -569 276 -84 15
-116 28 -290 115 -402 201 -541 300 -606 435 -40 82 -43 118 -11 160 62 81
143 131 291 178 146 47 275 62 545 62 286 0 365 -12 498 -76 96 -46 202 -141
202 -180 -1 -70 -85 -178 -167 -215 -49 -21 -66 -45 -44 -58 5 -4 22 -1 38 5
15 6 69 26 118 43 163 59 227 119 227 214 0 124 -124 228 -338 282 -135 35
-555 50 -779 29z m-3164 -6799 c225 -298 288 -608 199 -986 -50 -213 -168
-468 -379 -819 -116 -194 -372 -578 -386 -579 -11 -1 -67 169 -100 304 -79
321 -92 571 -44 850 72 421 169 789 284 1080 44 112 135 305 172 369 l26 45
75 -79 c41 -44 110 -127 153 -185z m-751 -1907 c0 -34 76 -328 114 -440 l34
-101 -171 -241 c-94 -132 -172 -239 -174 -238 -1 2 24 88 57 193 93 291 122
462 124 715 1 87 4 152 8 145 4 -6 8 -21 8 -33z"/>
<path d="M9103 4679 l-92 -71 -93 15 c-275 45 -486 19 -691 -84 -162 -82 -230
-135 -557 -438 -243 -226 -371 -358 -507 -521 -39 -47 -157 -174 -263 -283
-183 -188 -248 -250 -509 -482 -111 -99 -241 -237 -241 -256 0 -23 51 -60 78
-57 22 2 33 15 62 74 94 189 295 384 569 552 164 101 376 208 507 256 66 24
238 90 384 146 146 56 329 124 407 151 533 185 730 372 863 824 l20 70 101 74
c55 40 98 79 96 85 -9 28 -47 12 -134 -55z"/>
</g>
</svg>
