<?xml version="1.0" standalone="no"?>
<!DOCTYPE svg PUBLIC "-//W3C//DTD SVG 20010904//EN"
 "http://www.w3.org/TR/2001/REC-SVG-20010904/DTD/svg10.dtd">
<svg version="1.0" xmlns="http://www.w3.org/2000/svg"
 width="1920" height="1080" viewBox="0 0 1920 1080"
 preserveAspectRatio="xMidYMid meet">

<defs>
    <radialGradient id="grad" cx="50%" cy="50%" r="50%" fx="50%" fy="50%">
        <stop offset="0%" style="stop-color:rgb(0,0,0); stop-opacity:0" />
        <stop offset="40%" style="stop-color:rgb(0,0,0); stop-opacity:0" />
        <stop offset="100%" style="stop-color:rgb(0,0,0);stop-opacity:0.8" />
    </radialGradient>

    <image id="tile" href="tile-royalblue-skyblue.png" height="400" width="400" />
</defs>

<style>
.legend {
    font-family: "Pinyon Script";
    font-size: 27px;
    text-align: center;
    fill: skyblue;
}
</style>

 <use href="#tile" x="-40" y="-60" />
 <use href="#tile" x="-40" y="340" />
 <use href="#tile" x="-40" y="740" />
 
 <use href="#tile" x="360" y="-60" />
 <use href="#tile" x="360" y="340" />
 <use href="#tile" x="360" y="740" />
 
 <use href="#tile" x="760" y="-60" />
 <use href="#tile" x="760" y="340" />
 <use href="#tile" x="760" y="740" />
 
 <use href="#tile" x="1160" y="-60" />
 <use href="#tile" x="1160" y="340" />
 <use href="#tile" x="1160" y="740" />
 
 <use href="#tile" x="1560" y="-60" />
 <use href="#tile" x="1560" y="340" />
 <use href="#tile" x="1560" y="740" />

 <rect x="1560" y="910" width="210" height="60" fill="royalblue" transform="translate(25 -25) rotate(-45 1560 940)" />
 <text x="1570" y="945" textLength="190" class="legend" transform="translate(25, -25) rotate(-45 1560 940)">github.com/ianfinch</text>

 <rect x="0" y="0" width="120" height="1080" fill="rgba(0,0,0,0.8)" />
 <rect x="120" y="-300" width="1680" height="1680" fill="url(#grad)" />
 <rect x="1800" y="0" width="120" height="1080" fill="rgba(0,0,0,0.8)" />
 
</svg>
