<?xml version="1.0" standalone="no"?>
<!DOCTYPE svg PUBLIC "-//W3C//DTD SVG 20010904//EN"
 "http://www.w3.org/TR/2001/REC-SVG-20010904/DTD/svg10.dtd">
<svg version="1.0" xmlns="http://www.w3.org/2000/svg"
 width="1179" height="2556" viewBox="0 0 1179 2556"
 preserveAspectRatio="xMidYMid meet">

<defs>
    <radialGradient id="grad" cx="50%" cy="50%" r="50%" fx="50%" fy="50%">
        <stop offset="0%" style="stop-color:rgb(0,0,0); stop-opacity:0" />
        <stop offset="40%" style="stop-color:rgb(0,0,0); stop-opacity:0" />
        <stop offset="100%" style="stop-color:rgb(0,0,0);stop-opacity:0.8" />
    </radialGradient>

    <image id="tile" href="tile-royalblue-skyblue.png" height="400" width="400" />
</defs>

<style>
.legend {
    font-family: "Pinyon Script";
    font-size: 27px;
    text-align: center;
    fill: skyblue;
}
</style>

 <use href="#tile" x="-10" y="-122" />
 <use href="#tile" x="390" y="-122" />
 <use href="#tile" x="790" y="-122" />

 <use href="#tile" x="-10" y="278" />
 <use href="#tile" x="390" y="278" />
 <use href="#tile" x="790" y="278" />

 <use href="#tile" x="-10" y="678" />
 <use href="#tile" x="390" y="678" />
 <use href="#tile" x="790" y="678" />

 <use href="#tile" x="-10" y="1078" />
 <use href="#tile" x="390" y="1078" />
 <use href="#tile" x="790" y="1078" />

 <use href="#tile" x="-10" y="1478" />
 <use href="#tile" x="390" y="1478" />
 <use href="#tile" x="790" y="1478" />

 <use href="#tile" x="-10" y="1878" />
 <use href="#tile" x="390" y="1878" />
 <use href="#tile" x="790" y="1878" />

 <use href="#tile" x="-10" y="2278" />
 <use href="#tile" x="390" y="2278" />
 <use href="#tile" x="790" y="2278" />

 <rect x="768" y="2456" width="210" height="60" fill="royalblue" transform="translate(25 -25) rotate(-45 768 2456)" />
 <text x="802" y="2472" textLength="190" class="legend" transform="translate(25, -25) rotate(-45 802 2472)">github.com/ianfinch</text>

 <rect x="0" y="0" width="1179" height="400" fill="rgba(0,0,0,0.8)" />
 <rect x="-288" y="400" width="1756" height="1756" fill="url(#grad)" />
 <rect x="0" y="2156" width="1179" height="400" fill="rgba(0,0,0,0.8)" />
 
</svg>
